<svg width="38" height="40" viewBox="0 0 38 40" fill="none" xmlns="http://www.w3.org/2000/svg">
<path d="M28.4422 15.0999C28.6489 14.9678 28.8647 14.8611 29.0805 14.7544C29.3741 14.6082 29.6315 14.4135 29.8501 14.1781C30.6391 13.3266 31.1584 12.3635 31.0382 11.1504C30.957 10.3436 30.5536 9.70685 29.9955 9.14416C29.4058 8.55037 28.6875 8.18888 27.9088 7.93203C27.7712 7.88744 27.6827 7.81804 27.62 7.68821C27.2263 6.87898 26.5942 6.3268 25.807 5.89067C24.5304 5.183 23.1671 5.08978 21.7712 5.23106C20.434 5.36589 19.1322 5.19801 17.8324 4.92484C17.7733 4.91274 17.6841 4.92733 17.7235 4.80506C17.9195 4.17296 17.8791 3.51812 17.9145 2.86855C17.9417 2.37946 17.9405 1.88866 18.0153 1.40312C18.0526 1.16036 18.1124 0.923211 18.1996 0.692694C18.2974 0.440731 18.4611 0.252556 18.7006 0.130184C18.7396 0.110442 18.8192 0.112374 18.7968 0.0462168C18.7745 -0.0199401 18.7055 0.000852011 18.6528 0.0126457C18.3463 0.0761551 18.0439 0.154866 17.7463 0.260218C17.1516 0.473095 16.5463 0.507273 15.9407 0.297137C15.7278 0.223822 15.5116 0.17238 15.2891 0.14122C14.8441 0.0788995 14.4814 0.236611 14.1714 0.54777C13.9826 0.738003 13.9397 0.97759 13.9576 1.22652C13.9931 1.71511 13.9304 1.91576 13.2841 2.07497C12.765 2.20477 12.2569 2.15006 11.7566 1.97687C10.7736 1.63511 9.67638 2.35271 9.63272 3.38853C9.62258 3.62866 9.53879 3.8024 9.38605 3.96203C9.05757 4.30841 8.6679 4.58273 8.28982 4.86559C7.67907 5.32251 7.07992 5.78796 6.57982 6.37118C6.34553 6.64344 6.22616 6.97102 6.06998 7.28287C6.04311 7.33895 6.01989 7.41732 6.0757 7.46056C6.32228 7.65983 6.39738 7.97487 6.59274 8.20882C6.96867 8.67368 7.4367 9.00447 7.99364 9.2067C8.13519 9.25722 8.15784 9.30701 8.08545 9.44511C7.79112 10.0058 7.60413 10.5936 7.64386 11.2369C7.64887 11.3078 7.65155 11.3699 7.54425 11.3777C6.89232 11.429 6.47178 11.814 6.18323 12.3615C5.92372 12.8523 5.89495 13.3791 6.01521 13.9148C6.03996 14.0245 6.076 14.1243 5.9272 14.1944C5.84224 14.2334 5.80921 14.3447 5.77369 14.438C5.58631 14.9374 5.62831 15.4243 5.85177 15.9021C5.86817 15.9373 5.87213 15.9781 5.88784 16.0367C5.35837 15.9109 4.8384 15.864 4.31359 15.886C2.13644 15.9782 0.225206 17.7751 0.0152028 19.9448C-0.057331 20.6905 0.13772 21.3923 0.42991 22.0658C1.1123 23.631 2.31941 24.6179 3.91123 25.1643C4.09335 25.2273 4.22223 25.3347 4.33652 25.4833C4.89727 26.2036 5.38623 26.9686 5.79908 27.7797C6.62535 29.4041 8.01046 30.2735 9.70632 30.7478C10.5315 30.9783 11.3761 31.0988 12.2282 31.1777C12.379 31.1931 12.4123 31.2308 12.4045 31.3841C12.388 31.6958 12.4806 31.9806 12.7316 32.1879C12.7919 32.2393 12.8063 32.2843 12.8153 32.361C12.8428 32.6027 12.8492 32.8524 12.9864 33.0693C13.0436 33.1611 13.1096 33.2597 13.2119 33.2766C13.405 33.3109 13.4325 33.4223 13.4435 33.5939C13.4702 34.015 13.6923 34.3139 14.0765 34.488C14.2221 34.5537 14.2889 34.6382 14.2974 34.8175C14.3138 35.2088 14.536 35.4821 14.8952 35.6326C15.0424 35.6955 15.1138 35.7881 15.1503 35.9506C15.2528 36.4026 15.5056 36.5816 16.0822 36.6226C16.2007 36.6304 16.2492 36.6639 16.2757 36.7802C16.5399 37.9919 17.3772 38.7195 18.428 39.227C19.7238 39.8504 21.0805 39.8057 22.4554 39.5165C23.6933 39.2546 24.721 38.651 25.4985 37.67C26.1713 36.8193 26.6097 35.8407 26.7681 34.7555C26.8737 34.0289 26.9716 33.2998 26.8877 32.5611C26.8763 32.4664 26.9029 32.3918 26.9825 32.324C27.1266 32.2016 27.2479 32.055 27.3189 31.8684C28.0219 32.355 28.7582 32.7489 29.5878 32.9525C29.8222 33.0108 30.0561 33.0412 30.2943 33.0007C30.5102 32.9638 30.7091 32.8895 30.7876 32.6613C30.863 32.4386 30.7537 32.2654 30.6045 32.1169C30.3232 31.8315 29.9981 31.5997 29.6708 31.3685C29.2861 31.0969 28.9458 30.7737 28.5895 30.4689C28.4893 30.3817 28.5307 30.345 28.6083 30.287C28.8296 30.1229 29.0133 29.9224 29.1495 29.6834C29.1892 29.6146 29.2424 29.5701 29.3093 29.5242C30.0772 29.0112 30.875 28.5484 31.712 28.1542C32.6605 27.7069 33.2574 26.9464 33.5895 25.9707C33.9121 25.0207 34.1241 24.0398 34.3269 23.0591C34.4801 22.3105 34.9289 21.762 35.4372 21.2441C35.5868 21.0899 35.7974 21.0335 35.9965 20.9685C36.2015 20.8996 36.4145 20.8519 36.6085 20.751C37.0805 20.5058 37.2175 20.2177 37.0926 19.6996C37.0171 19.3916 36.9008 19.0969 36.7155 18.8393C35.7405 17.4853 34.5479 16.3873 32.9912 15.7291C31.6818 15.1769 30.3231 14.9009 28.8974 15.0268C28.7424 15.0475 28.5924 15.0783 28.4422 15.0999ZM8.94673 6.43989C9.21857 6.32515 9.39558 6.47324 9.54831 6.66973C9.74673 6.9238 9.65488 7.13694 9.30795 7.19731C9.43696 7.05335 9.48532 6.91238 9.32541 6.776C9.24742 6.71078 9.16016 6.64572 9.06903 6.73996C8.91253 6.90293 8.97168 7.08026 9.06981 7.27276C8.9449 7.20615 8.8802 7.12107 8.83517 7.00512C8.76617 6.82577 8.86112 6.66765 8.87903 6.49993C8.76001 6.52483 8.76887 6.66211 8.68538 6.72405C8.66622 6.68729 8.62841 6.67648 8.60681 6.65666C8.51082 6.55902 8.47691 6.4238 8.5531 6.31726C8.63624 6.20188 8.73192 6.28099 8.80863 6.3675C8.83865 6.40135 8.89833 6.41562 8.94673 6.43989ZM8.71062 8.45132L8.7138 8.44581C8.64319 8.62533 8.48649 8.74413 8.3927 8.90659C8.35555 8.96775 8.31033 8.93797 8.26686 8.9147C7.92267 8.71598 7.6641 8.41984 7.40234 8.12921C7.36174 8.0819 7.37949 8.03524 7.42421 8.00232C7.48237 7.9588 7.4949 8.02294 7.51549 8.04768C7.63964 8.19829 7.7719 8.34441 7.92338 8.46674C8.06603 8.58214 8.22674 8.66942 8.41172 8.7083C8.21211 8.54533 8.01265 8.39162 7.83184 8.21197C7.5417 7.91963 7.54011 7.92238 7.74375 7.5792C7.75011 7.56818 7.75806 7.55442 7.76442 7.5434C7.84344 7.37792 7.93173 7.21228 7.80219 7.03286C7.6709 6.84692 7.47801 6.85671 7.28935 6.89097C7.15397 6.9156 7.02181 6.96964 6.88949 7.0144C6.7789 7.05334 6.66787 7.09939 6.55844 7.14267C6.59946 7.05255 6.6579 6.99267 6.7175 6.93713C7.08696 6.59606 7.53261 6.37424 7.9665 6.13462C8.69317 5.7281 9.49945 5.41896 9.88641 4.56115C10.0967 4.93772 10.3248 5.26764 10.5447 5.60206C10.824 6.02765 11.1834 6.31773 11.7083 6.36562C11.7536 6.36977 11.8037 6.40055 11.8296 6.3145C11.7264 6.27697 11.6238 6.24161 11.5228 6.2035C11.4811 6.18675 11.4099 6.19885 11.4094 6.13615C11.4109 6.06359 11.4807 6.0635 11.5345 6.05605C11.6999 6.03037 11.8403 5.98111 11.8095 5.77057C11.8057 5.739 11.8223 5.72291 11.8394 5.69972C12.0311 5.45981 12.0247 5.36611 11.7855 5.18581C11.7187 5.13621 11.6871 5.10511 11.7045 5.00502C11.7335 4.85292 11.6812 4.69238 11.4957 4.68623C11.3778 4.68058 11.3898 4.64711 11.3872 4.55935C11.3772 4.32229 11.2481 4.2312 11.0469 4.33166C10.9506 4.38073 10.9373 4.33078 10.9146 4.28099C10.7773 3.99426 10.5373 4.3495 10.3749 4.19517C10.3472 4.17001 10.2717 4.21818 10.2365 4.26949C10.2185 4.29761 10.2016 4.33007 10.1835 4.35818C10.1549 4.40775 10.1774 4.48317 10.0804 4.5208C9.83129 4.00799 9.9377 3.49302 10.0325 2.96952C9.98586 3.43822 10.4624 3.46183 10.6564 3.71707C10.6809 3.74774 10.7564 3.76011 10.7929 3.72241C10.8808 3.63367 10.9353 3.6982 11.0027 3.74996C11.1088 3.83325 11.242 3.90464 11.3061 3.72686C11.3546 3.59516 11.41 3.64549 11.4882 3.65945C11.7201 3.69972 11.8231 3.59764 11.7735 3.36888C11.7534 3.27651 11.7504 3.23075 11.8648 3.22337C11.9792 3.21599 12.0731 3.12334 12.024 3.02709C11.9181 2.82273 11.9802 2.68971 12.1406 2.56757C12.1579 2.55365 12.1517 2.5134 12.1905 2.51929C12.2763 2.62201 12.3652 2.71923 12.4428 2.82645C12.8179 3.34041 13.2864 3.79444 13.4627 4.45245C13.57 4.3143 13.5339 4.17966 13.4751 4.05576C13.3909 3.88049 13.2926 3.71362 13.1938 3.54459C12.9726 3.17092 12.6862 2.84035 12.4108 2.48123C13.0386 2.48757 13.6245 2.433 14.0942 2.02317C14.1809 2.34674 14.2659 2.6638 14.3508 2.98086C14.4701 3.42604 14.5758 3.87255 14.8312 4.26964C14.932 4.42882 14.902 4.62074 14.9077 4.79843C14.9129 4.94832 14.7687 4.93111 14.6759 4.95831C14.5483 4.99481 14.5709 4.87936 14.5535 4.81421C14.4914 4.59111 14.4466 4.36336 14.3742 4.14535C14.3048 3.93819 14.2298 3.72785 14.0732 3.56034C14.2701 3.9824 14.354 4.43473 14.4488 4.88414C14.4631 4.9548 14.4894 5.02689 14.3917 5.05307C14.2853 5.08158 14.3038 4.98583 14.2883 4.93647C14.2333 4.7487 14.193 4.55469 14.1315 4.36866C14.0654 4.16527 13.9824 3.9687 13.8951 3.73839C13.8392 3.85113 13.8839 3.91364 13.8986 3.9772C13.9605 4.25156 14.1031 4.4973 14.1541 4.77457C14.2148 5.10513 14.2213 5.10338 13.9143 5.23453C13.8244 5.27258 13.7363 5.31714 13.6542 5.36706C13.584 5.40914 13.5535 5.40802 13.515 5.32523C13.4294 5.13634 13.3352 4.94977 13.2373 4.76655C13.0728 4.45682 12.8739 4.17495 12.5996 3.95051C12.7149 4.15472 12.8495 4.34442 12.9738 4.5392C13.1446 4.80301 13.2824 5.08264 13.3996 5.37243C13.4195 5.42064 13.4512 5.48663 13.3753 5.51627C13.3032 5.54257 13.3053 5.47218 13.2834 5.43383C13.1481 5.20706 13.0194 4.97854 12.8745 4.75902C12.8045 4.65439 12.7473 4.52774 12.624 4.45837C12.597 4.50518 12.6202 4.52225 12.6337 4.54656C12.8227 4.86132 13.0053 5.17783 13.1987 5.49143C13.2526 5.57941 13.2293 5.62289 13.1506 5.67657C13.0325 5.75709 13.048 5.64121 13.0173 5.59592C12.8952 5.40982 12.8098 5.1953 12.6268 5.01623C12.6293 5.09472 12.6403 5.13598 12.6683 5.17968C12.7648 5.34003 12.857 5.50154 12.9475 5.6658C12.979 5.72254 13.0079 5.78695 12.934 5.83237C12.8476 5.88345 12.8359 5.80511 12.8034 5.7533C12.7076 5.6044 12.6113 5.45332 12.4222 5.39924C12.5371 5.55 12.6751 5.68293 12.7485 5.86112C12.7627 5.89687 12.8022 5.93984 12.758 5.97494C12.7005 6.02063 12.6991 5.93721 12.6717 5.93058C12.56 5.90465 12.5242 5.78854 12.4344 5.73115C12.4022 5.82822 12.4668 5.8784 12.5059 5.92846C12.6062 6.05984 12.5869 6.14415 12.464 6.25856C12.218 6.48739 11.9921 6.73878 11.7678 6.98742C11.6885 7.07382 11.6325 7.08186 11.5381 7.01637C11.2875 6.8368 11.0605 6.63229 10.8458 6.41285C10.6238 6.18372 10.4018 5.95459 10.1869 5.66534C10.1874 5.82349 10.2553 5.90306 10.3159 5.97294C10.6725 6.39177 11.0388 6.80335 11.4979 7.11793C11.5498 7.15524 11.6084 7.17443 11.5521 7.25936C11.4957 7.34429 11.4646 7.31537 11.3946 7.27128C11.093 7.07512 10.86 6.80472 10.6162 6.54651C10.5152 6.43859 10.4157 6.32792 10.2472 6.29858C10.5216 6.59282 10.7981 6.88648 11.0764 7.18665C10.7882 7.30111 10.738 6.97475 10.5467 6.88634C10.5476 7.03739 10.6889 7.10428 10.7215 7.22589C10.602 7.25789 10.494 7.28916 10.3849 7.31608C10.3349 7.32946 10.2537 7.36519 10.2561 7.27844C10.2588 7.18459 10.1027 7.14032 10.1978 7.02637C10.3913 6.79298 10.3642 6.63964 10.0937 6.50731C10.0106 6.46671 10.0013 6.43197 10.0088 6.35549C10.0277 6.1223 9.9613 6.03071 9.74835 5.98303C9.71112 5.97439 9.66901 5.99963 9.66183 5.9294C9.64678 5.81241 9.59655 5.71181 9.46113 5.70155C9.32629 5.69346 9.2366 5.77568 9.17952 5.88407C9.1288 5.98145 9.04713 5.98937 8.95825 6.0225C8.79786 6.0841 8.65912 6.20041 8.48031 6.23668C8.45801 6.24033 8.42563 6.29323 8.43044 6.31987C8.46172 6.55821 8.3722 6.78004 8.35697 7.00989C8.35229 7.08796 8.38817 7.17843 8.43343 7.24311C8.48203 7.31155 8.51728 7.36495 8.52101 7.45705C8.52805 7.64835 8.85072 7.89706 9.01064 7.80766C9.17491 7.71709 9.26794 7.76897 9.39651 7.85789C9.29061 7.94911 9.17513 8.02194 9.09226 8.12096C8.96659 8.26868 8.87212 8.22882 8.74383 8.12355C8.54305 7.95623 8.37178 7.76005 8.171 7.59273C8.28791 7.86399 8.49884 8.05186 8.72208 8.2248C8.86817 8.31833 8.87578 8.38146 8.71062 8.45132ZM18.0849 36.4351C18.2005 36.6322 18.2413 36.6888 18.4514 36.7605C19.8308 37.2265 20.899 37.0264 21.8171 35.9355C21.9796 35.743 22.0772 35.5166 22.0937 35.2655C22.1574 34.2522 21.8265 33.382 21.1066 32.6671C20.445 32.0135 19.6324 31.5608 18.8934 31.0094C18.4941 30.7091 18.0696 30.4364 17.7836 30.0033C17.5441 29.6392 17.3537 29.2503 17.2215 28.8435C16.9424 27.9757 16.8095 27.0802 16.8252 26.166C16.8306 25.8038 16.8556 25.4456 16.9467 25.0907C16.9728 24.9882 16.9954 24.8379 16.8547 24.8081C16.702 24.7768 16.7272 24.94 16.6997 25.0288C16.5597 25.4876 16.5321 25.9582 16.5434 26.4347C16.5682 27.387 16.6679 28.3239 17.0953 29.1892C17.2268 29.4542 17.1749 29.6427 17.0391 29.8653C16.9578 29.9965 16.8857 30.0228 16.7536 29.9465C16.384 29.7313 16.0134 29.521 15.6683 29.2667C15.5353 29.1697 15.4174 29.0337 15.1804 28.9831C15.2745 29.065 15.3237 29.11 15.374 29.15C15.8 29.5061 16.2557 29.8169 16.7443 30.077C16.7933 30.1034 16.8879 30.1177 16.8277 30.2059C16.7862 30.2682 16.7211 30.2508 16.6599 30.2137C16.3122 30.0019 15.9566 29.8039 15.6174 29.5806C15.1035 29.2435 14.531 28.9919 14.0861 28.5478C14.2068 28.7808 14.3955 28.9467 14.6067 29.0833C15.2711 29.5128 15.9243 29.9615 16.6131 30.3519C16.6489 30.3725 16.7242 30.3756 16.6965 30.4459C16.6646 30.5266 16.605 30.4867 16.5572 30.4646C16.4242 30.4025 16.2928 30.3376 16.1608 30.2706C15.1184 29.7422 14.0618 29.2386 13.1504 28.4866C13.1294 28.469 13.0993 28.4352 13.0483 28.4791C13.2815 28.7588 13.566 28.9781 13.8676 29.1743C14.6985 29.7127 15.5633 30.1863 16.4624 30.5971C16.497 30.6134 16.5787 30.6055 16.5397 30.6858C16.5122 30.7397 16.4641 30.7339 16.4126 30.7152C16.2287 30.6457 16.038 30.5944 15.8631 30.5063C14.6129 29.8707 13.3975 29.1745 12.3204 28.2645C12.2247 28.1854 12.1428 28.0793 12.0007 28.0615C12.3661 28.5129 12.8 28.8901 13.2574 29.2423C13.2093 29.2366 13.1736 29.2159 13.1362 29.198C12.1697 28.6749 11.4092 27.9128 10.7034 27.0941C10.4537 26.8049 10.1957 26.5109 10.0721 26.1367C9.99334 25.8948 9.71538 25.7435 9.75949 25.4477C9.4948 25.2416 9.536 24.935 9.51988 24.6577C9.49755 24.2703 9.55169 23.8904 9.70325 23.4657C9.75752 23.677 9.81403 23.8271 9.89052 23.9649C9.99008 24.1453 10.1106 24.3085 10.318 24.3787C10.4331 24.4176 10.5403 24.4006 10.631 24.3134C10.7163 24.2324 10.7337 24.1323 10.6997 24.0227C10.6599 23.8914 10.5212 23.8517 10.4136 23.9364C10.3075 24.0184 10.3059 24.0211 10.2266 23.9074C10.178 23.839 10.1288 23.7683 10.1029 23.6892C9.90196 23.1215 9.8361 22.5457 10.0357 21.9615C10.2133 21.4344 10.44 20.9338 10.7644 20.4768C11.3462 19.6599 11.4465 18.7834 11.0217 17.8755C10.8084 17.4182 10.9918 16.7476 11.5092 16.5764C11.5971 16.5482 11.6743 16.4716 11.7418 16.4023C11.8003 16.3425 11.8625 16.3141 11.9432 16.3112C12.6173 16.2818 13.1979 16.0075 13.7273 15.612C13.7876 15.5679 13.8413 15.5512 13.9143 15.5456C14.6355 15.492 15.3216 15.3338 15.914 14.8864C16.04 14.7921 16.1815 14.7123 16.3486 14.6931C17.078 14.6094 17.8091 14.5322 18.5448 14.5329C18.7749 14.5318 19.0059 14.5514 19.2344 14.5786C19.3688 14.5938 19.4876 14.7854 19.4343 14.8905C19.3715 15.012 19.265 15.0056 19.1481 14.9602C19.0987 14.9408 19.0434 14.8998 18.9628 14.9377C19.0929 15.0843 19.2335 15.1747 19.4124 15.1128C19.5528 15.0635 19.6421 14.9535 19.5959 14.7727C19.7099 14.8678 19.7183 14.9773 19.6732 15.0871C19.5321 15.4205 19.2309 15.3476 18.9545 15.3495C19.1067 15.4833 19.2585 15.5893 19.4623 15.551C19.7712 15.4961 19.9434 15.2964 20.0152 14.9908C20.0513 15.0301 20.0762 15.0536 20.0958 15.0833C20.2924 15.3914 20.2814 15.4805 20.0129 15.7293C19.9404 15.7976 19.8756 15.8685 19.8351 15.9608C19.7963 16.0503 19.7989 16.1381 19.8786 16.2098C20.0182 16.34 20.1913 16.3867 20.3749 16.4027C20.4251 16.4079 20.4591 16.3871 20.4676 16.3406C20.4787 16.2865 20.4309 16.2644 20.3926 16.2606C20.285 16.2499 20.1916 16.2051 20.0965 16.1631C19.9603 16.1065 19.9502 16.0254 20.0605 15.933C20.1664 15.8418 20.2795 15.7603 20.3821 15.6653C20.5969 15.4681 20.6213 15.2637 20.4872 15.0064C20.4138 14.8631 20.2942 14.7555 20.2059 14.6255C20.2259 14.6132 20.2387 14.6004 20.2486 14.6024C20.551 14.6541 20.8541 14.7079 21.1593 14.7611C22.9324 15.0634 24.6968 15.4285 26.5128 15.3609C26.6005 15.3583 26.6349 15.391 26.6505 15.4753C26.7374 15.9385 27.0098 16.2518 27.4325 16.4481C27.6799 16.5634 27.9199 16.6946 28.1275 16.8787C28.3162 17.0446 28.4296 17.233 28.379 17.5049C28.3293 17.7883 28.4238 18.0283 28.664 18.2037C28.8755 18.3588 29.0316 18.559 29.1571 18.7931C29.4589 19.3546 29.384 19.9612 29.3662 20.5549C29.357 20.8855 29.2447 21.2135 29.1871 21.5455C28.9529 22.8954 28.4262 24.1351 27.7403 25.3105C27.4307 25.8403 27.0199 26.3135 26.8364 26.9143C26.8354 26.9192 26.8168 26.9195 26.7842 26.9283C26.8553 26.6113 26.9227 26.307 26.9901 26.0026C26.9627 25.996 26.9337 25.9921 26.9064 25.9855C26.5725 26.9198 26.4642 27.9055 26.3433 28.9224C26.2872 28.7652 26.2633 28.6413 26.271 28.5135C26.3182 27.7514 26.3293 26.985 26.4622 26.2302C26.4786 26.135 26.5654 25.9814 26.4465 25.9458C26.3786 25.9267 26.373 26.1144 26.355 26.2123C26.2493 26.7993 26.1697 27.3885 26.1487 27.9877C26.0994 27.9078 26.0866 27.8251 26.0878 27.734C26.0959 27.0522 26.1488 26.3723 26.1903 25.6932C26.1947 25.6315 26.2279 25.5295 26.1341 25.5267C26.0658 25.5241 26.0812 25.6247 26.0756 25.682C26.0379 26.0971 26.0072 26.5127 25.9651 26.929C25.9554 27.0316 25.9857 27.1446 25.9227 27.2569C25.8514 27.1386 25.8697 27.0244 25.8662 26.9159C25.8489 26.4085 25.8715 25.902 25.9246 25.3966C25.9288 25.3513 25.9632 25.2886 25.8905 25.2778C25.8248 25.2674 25.8249 25.3372 25.8159 25.3816C25.8052 25.4286 25.7951 25.4779 25.7916 25.5254C25.7615 25.8477 25.7337 26.1693 25.7018 26.5107C25.4544 26.0044 25.7856 25.4944 25.6393 25.0006C25.5334 25.2222 25.5617 25.4753 25.4693 25.756C25.3357 25.3356 25.2395 24.9681 25.2036 24.582C25.1588 24.0936 25.1261 23.6066 25.1882 23.1174C25.1993 23.0284 25.1828 22.9583 25.0887 22.937C24.9923 22.9162 24.9483 22.9862 24.9278 23.0662C24.9077 23.1391 24.8889 23.2163 24.8836 23.2922C24.823 24.0998 24.8419 24.9 25.0662 25.6848C25.2291 26.258 25.3854 26.8329 25.5716 27.3975C25.6602 27.667 25.721 27.9463 25.7961 28.2265C25.6784 28.265 25.5737 28.1697 25.4321 28.2146C25.5503 28.2993 25.6658 28.2963 25.77 28.3289C25.8588 28.3563 25.8699 28.4325 25.8661 28.4963C25.8565 28.6083 25.7691 28.534 25.7184 28.5359C25.6454 28.5415 25.5784 28.4826 25.4732 28.5155C25.6003 28.6164 25.7449 28.6173 25.8647 28.6736C25.9735 28.7236 25.9687 28.8273 25.9563 28.9027C25.9421 28.9973 25.8553 28.9252 25.8034 28.9228C25.6926 28.9175 25.5802 28.8802 25.4729 28.888C25.377 28.895 25.2611 28.8446 25.1495 28.949C25.3692 28.9786 25.5523 29.0017 25.7359 29.027C25.9436 29.0551 26.0664 29.1572 26.0498 29.3991C25.7567 29.3566 25.4614 29.3054 25.1655 29.3823C25.3368 29.4225 25.5111 29.4387 25.6849 29.4619C26.1222 29.5217 26.1222 29.5217 26.1727 29.962C25.7976 29.9345 25.4197 29.9054 25.0353 29.8781C25.0906 29.9889 25.1898 29.9856 25.2745 29.9978C25.4795 30.0244 25.688 30.0383 25.8962 30.0594C26.2311 30.093 26.2224 30.0953 26.2791 30.42C26.308 30.5798 26.2484 30.5748 26.1308 30.5528C25.8173 30.4948 25.5041 30.4204 25.1834 30.4133C25.1086 30.4124 25.0247 30.386 24.9972 30.5004C25.3198 30.5141 25.6328 30.5792 25.9473 30.6322C26.3203 30.6952 26.3317 30.6945 26.3844 31.0737C26.4284 31.3854 26.4893 31.6996 26.4881 32.0165C26.2992 31.9717 26.1326 31.9232 25.9614 31.8923C25.591 31.8216 25.2178 31.8099 24.8417 31.8222C24.7097 31.825 24.6001 31.6938 24.6215 31.5391C24.6406 31.4106 24.7452 31.471 24.8178 31.4725C25.346 31.4893 25.8737 31.5131 26.4197 31.709C26.3088 31.5385 26.1635 31.5262 26.0349 31.4979C25.6145 31.4057 25.1838 31.3791 24.7534 31.3711C24.6388 31.3692 24.5618 31.3596 24.5294 31.2216C24.1903 29.8345 23.5949 28.5416 23.0395 27.2334C22.7226 26.485 22.3824 25.7453 22.2385 24.9389C22.2289 24.8856 22.187 24.8247 22.2276 24.7766C22.3598 24.6271 22.3173 24.4686 22.2392 24.2987C22.4638 24.3898 22.5947 24.2965 22.6945 24.1301C22.8705 23.8316 22.8125 23.5282 22.6806 23.2447C22.5681 23.0072 22.4983 22.7815 22.6058 22.5223C22.4132 22.5506 22.3453 22.6619 22.3887 22.9109C22.429 23.1306 22.5002 23.3443 22.5475 23.5643C22.5912 23.7621 22.5985 23.9719 22.4451 24.1201C22.29 24.2711 22.0531 24.2903 21.8567 24.322C21.6223 24.3592 21.5399 24.2253 21.5156 23.9782C21.4826 23.6379 21.5411 23.2917 21.4466 22.9562C21.4042 22.807 21.3249 22.6932 21.1868 22.6209C21.1571 22.6055 21.1165 22.5931 21.0898 22.6236C21.0592 22.6574 21.0869 22.6825 21.113 22.7104C21.2147 22.8205 21.2279 22.9566 21.2308 23.0978C21.2374 23.3917 21.2369 23.6851 21.2821 23.9755C21.3322 24.2926 21.469 24.4212 21.7707 24.4265C21.8056 24.4265 21.8622 24.4206 21.8542 24.46C21.8145 24.6336 21.9811 24.7426 21.9736 24.9145C21.9637 25.1382 22.0203 25.3582 22.0807 25.5747C22.372 26.6186 22.8378 27.5924 23.2699 28.5798C23.6414 29.4276 23.9722 30.2886 24.2352 31.1747C24.2728 31.2974 24.3167 31.3833 24.1002 31.3832C23.4627 31.3841 22.8399 31.5091 22.224 31.6601C22.1805 31.6718 22.1137 31.6571 22.0992 31.7331C22.1195 31.7393 22.1388 31.7505 22.1567 31.748C22.2041 31.7423 22.253 31.7338 22.3014 31.7232C22.8594 31.5993 23.4171 31.4917 23.9923 31.4842C24.3516 31.4787 24.3499 31.4722 24.4068 31.841C23.9247 31.8748 23.4486 31.9395 22.9449 32.1443C23.0737 32.1819 23.1337 32.1542 23.1918 32.1363C23.5547 32.0228 23.9289 31.9947 24.3041 31.9616C24.4272 31.9519 24.461 31.9824 24.4808 32.0912C24.6545 32.9477 24.7169 33.8062 24.5843 34.675C24.5666 34.7914 24.541 34.8262 24.4187 34.7868C23.916 34.6306 23.3903 34.6318 22.8737 34.5887C22.8333 34.5855 22.7956 34.584 22.7816 34.6273C22.8108 34.6754 22.8481 34.6584 22.8798 34.6638C23.3396 34.7292 23.8087 34.7338 24.2607 34.8571C24.5571 34.9383 24.551 34.9329 24.4818 35.2308C24.4575 35.3397 24.418 35.3573 24.3139 35.3339C24.1847 35.3034 24.0548 35.2614 23.9121 35.2764C23.918 35.2981 23.9181 35.3073 23.9214 35.3111C24.0335 35.3905 24.1718 35.3767 24.2946 35.4183C24.3791 35.4468 24.4242 35.4673 24.3998 35.5763C24.2289 36.3716 23.8671 37.0713 23.346 37.7067C23.092 37.3581 22.8877 36.9776 22.5363 36.7087C22.5066 36.7888 22.5605 36.8163 22.5899 36.848C22.7891 37.0529 22.9458 37.2902 23.1128 37.5225C23.2212 37.675 23.323 37.8293 23.1674 38.0129C23.1658 38.0157 23.1803 38.0351 23.1948 38.0545C23.2918 37.9214 23.3603 37.9682 23.3875 38.0959C23.4329 38.3002 23.4778 38.5024 23.4415 38.7146C23.4306 38.778 23.4085 38.8258 23.3487 38.8372C23.2557 38.8551 23.2788 38.7675 23.2672 38.724C23.2112 38.5063 23.1042 38.3069 22.993 38.1179C22.8875 37.9413 22.8028 37.7382 22.5982 37.6348C22.6666 37.777 22.7909 37.902 22.8178 38.0461C22.8454 38.1923 22.6402 38.2519 22.5567 38.3744C22.7354 38.4592 22.8433 38.3581 22.9526 38.2451C23.0249 38.3933 23.0981 38.5273 23.1523 38.6687C23.1899 38.7657 23.2498 38.8939 23.0816 38.9437C22.4674 39.1269 21.8471 39.2791 21.1981 39.3064C21.3369 38.678 21.2233 38.1149 20.8629 37.604C20.8931 37.7425 20.9558 37.8724 21.0098 38.0045C21.1618 38.3804 21.2147 38.7689 21.1364 39.1716C21.1073 39.3237 21.0055 39.3347 20.8731 39.3446C20.7315 39.3546 20.7145 39.2823 20.6893 39.1797C20.6337 38.9549 20.5716 38.7318 20.5095 38.5087C20.4932 38.4479 20.5005 38.3621 20.3843 38.363C20.4582 38.6388 20.5326 38.9075 20.6004 39.1779C20.6173 39.2409 20.6844 39.3439 20.5332 39.3356C20.453 39.3315 20.3342 39.4005 20.3354 39.214C20.3365 39.0531 20.3671 38.8634 20.1812 38.734C20.2068 38.8993 20.2344 39.0456 20.2483 39.1931C20.2536 39.2476 20.2549 39.3217 20.1516 39.3098C20.0647 39.2982 20.0722 39.2566 20.0908 39.1958C20.1118 39.118 20.1214 39.0409 20.0147 39.016C19.9764 39.1077 20.098 39.3009 19.8848 39.2696C19.2708 39.1757 18.6868 38.9854 18.1544 38.6579C18.0596 38.5995 18.0067 38.5671 18.1597 38.4866C18.4501 38.3366 18.7179 38.1461 18.8648 37.8345C18.9407 37.6745 18.9475 37.5609 18.8684 37.4308C18.8291 37.979 18.4482 38.2254 18.0404 38.458C17.9415 38.5148 17.8983 38.4751 17.8461 38.4193C17.7651 38.334 17.8668 38.323 17.9088 38.2885C18.0436 38.1662 18.1812 38.0456 18.2569 37.8763C18.289 37.8049 18.3811 37.7406 18.2931 37.6292C18.181 37.8361 18.0685 38.0245 17.901 38.1812C17.7646 38.3062 17.6613 38.3292 17.556 38.1619C17.6942 37.9829 17.9576 37.8797 17.9169 37.5717C17.8359 37.6167 17.8289 37.6861 17.7959 37.7368C17.7554 37.7942 17.7183 37.8554 17.6711 37.9053C17.4736 38.1234 17.4544 38.1216 17.2678 37.8853C17.4084 37.7848 17.5914 37.7381 17.6777 37.5474C17.5528 37.5506 17.4982 37.642 17.4211 37.6929C17.2106 37.8285 17.1817 37.8246 17.0428 37.6104C17.0154 37.5689 16.9902 37.5268 16.9671 37.4841C16.7219 37.047 16.6233 36.566 16.5628 36.0795C16.487 35.4667 16.3218 34.85 16.5572 34.191C16.7556 34.3148 16.9288 34.4313 17.1137 34.5307C17.2849 34.6222 17.4651 34.7042 17.6725 34.6789C17.7901 34.666 17.8881 34.6235 17.9573 34.5258C17.9829 34.491 17.9963 34.4455 17.9679 34.4089C17.9289 34.3588 17.8997 34.4062 17.8657 34.427C17.7275 34.5106 17.5867 34.5064 17.4464 34.4346C17.1901 34.3031 16.9353 34.1689 16.6591 34.0241C16.8736 33.9038 17.035 34.0025 17.1956 34.0805C17.4398 34.2013 17.6693 34.3632 17.9654 34.2955C18.0377 34.2785 18.0461 34.3274 18.0443 34.3814C18.0341 34.6821 18.119 34.9642 18.212 35.2419C18.2471 35.3466 18.225 35.3944 18.1174 35.4186C17.6952 35.5107 17.273 35.6378 16.8291 35.4402C16.902 35.5906 17.0181 35.6247 17.1552 35.6322C17.4996 35.6493 17.8364 35.6033 18.1678 35.5284C18.2667 35.5066 18.3079 35.4955 18.3567 35.6081C18.6034 36.1728 18.9869 36.5961 19.6107 36.7525C19.6183 36.7551 19.6246 36.7697 19.6318 36.7794C19.0623 36.7993 18.5806 36.6956 18.0849 36.4351ZM7.49241 15.6231C7.44377 15.5197 7.36842 15.4817 7.30001 15.4349C7.23102 15.3859 7.15349 15.3485 7.09361 15.29C6.40435 14.6461 6.19239 13.8464 6.35655 12.9388C6.4469 12.4421 6.72884 12.0524 7.15501 11.7753C7.28611 11.6912 7.42463 11.6262 7.57855 11.6013C7.62097 11.5945 7.66573 11.5965 7.6781 11.6514C7.68931 11.7019 7.64297 11.7027 7.61373 11.7152C7.09421 11.9219 6.78319 12.3334 6.55249 12.8188C6.49875 12.931 6.43489 13.0575 6.50475 13.2227C6.74471 12.6067 7.03172 12.2273 7.44994 11.9639C7.50769 11.9275 7.5721 11.8986 7.63651 11.8697C7.71337 11.8351 7.70651 11.9138 7.7316 11.9466C7.76512 11.9935 7.74371 12.0179 7.69275 12.0362C7.23256 12.2037 6.97754 12.5723 6.76355 12.9811C6.72078 13.0647 6.67483 13.1538 6.72665 13.2517C6.79587 13.2494 6.78901 13.1977 6.80475 13.1609C6.98733 12.7652 7.25298 12.4449 7.62866 12.2139C7.7825 12.1192 7.81675 12.1775 7.85282 12.3121C7.90302 12.5082 7.98956 12.6921 8.07826 12.8755C8.46458 13.6658 9.07824 14.1926 9.90436 14.4787C10.03 14.5218 10.1364 14.6237 10.3073 14.6012C10.237 14.478 10.1242 14.4477 10.0333 14.3953C9.34275 13.9984 8.71109 13.5695 8.38632 12.7744C8.16453 12.2333 8.00169 11.695 8.0078 11.1185C8.02119 9.8394 9.01723 8.23184 10.479 7.59808C10.7043 7.50049 10.9437 7.43865 11.1958 7.47586C11.2537 7.48361 11.3672 7.45553 11.3504 7.55779C11.338 7.63326 11.328 7.75231 11.1706 7.72933C11.059 7.71267 10.939 7.7425 10.8237 7.7897C10.1151 8.07266 9.54098 8.53606 9.04275 9.10016C8.91591 9.24354 8.79082 9.39344 8.71153 9.57528C8.78165 9.59374 8.80984 9.55127 8.83861 9.51097C9.18402 9.0367 9.62441 8.665 10.1015 8.33466C10.3883 8.13678 10.6868 7.9567 11.0352 7.88431C11.0907 7.8741 11.1747 7.81434 11.1996 7.89845C11.2262 7.98908 11.1229 7.97718 11.0714 7.99332C10.4579 8.18797 9.94504 8.53253 9.52346 9.0179C9.4539 9.09706 9.36304 9.17494 9.41691 9.29783C9.88417 8.7397 10.4585 8.35538 11.1606 8.10907C11.1434 8.25333 11.169 8.38378 10.9736 8.34072C10.9145 8.32862 10.8361 8.36594 10.775 8.39859C10.4773 8.56448 10.1986 8.75786 9.95341 8.99813C9.79893 9.15124 9.68691 9.33255 9.55232 9.53387C9.69278 9.51951 9.72728 9.43113 9.7737 9.36981C10.0176 9.0554 10.3279 8.82331 10.6575 8.61162C10.7902 8.52486 10.9268 8.44403 11.094 8.49466C11.1197 8.62512 11.0161 8.75993 11.1058 8.90348C11.1942 8.80765 11.2124 8.69336 11.2407 8.59036C11.4329 7.8918 11.8176 7.32088 12.356 6.84609C12.3883 6.81882 12.4145 6.78621 12.4434 6.75518C13.0458 6.12825 13.7591 5.67178 14.5859 5.41301C15.6129 5.09361 16.6582 5.12074 17.7022 5.32514C18.181 5.41798 18.6589 5.52501 19.1461 5.57135C20.3549 5.68735 21.5648 5.57265 22.7733 5.53978C23.9632 5.50722 25.0593 5.79309 26.0758 6.40751C26.6208 6.73864 27.0202 7.2042 27.3767 7.77901C27.2229 7.71779 27.1021 7.76182 27.0181 7.63071C26.7845 7.2627 26.4772 6.95866 26.1442 6.68013C25.9252 6.49676 25.6852 6.36554 25.4 6.29999C25.9789 6.64528 26.4587 7.08931 26.8604 7.65899C26.6989 7.65571 26.5693 7.66716 26.4835 7.52954C26.3175 7.25747 26.0822 7.0482 25.839 6.85269C25.7616 6.78964 25.6795 6.70921 25.5181 6.74083C25.8508 7.00083 26.1419 7.25334 26.3791 7.60874C25.8495 7.60401 25.6179 7.26106 25.3774 6.84136C25.4005 7.20527 25.6101 7.37953 25.8472 7.56969C25.7759 7.57253 25.7415 7.57474 25.7094 7.57637C25.3528 7.58346 24.9935 7.55406 24.642 7.63196C23.9253 7.78908 23.2093 7.95764 22.4928 8.12403C21.1983 8.42667 19.9085 8.74667 18.656 9.21494C17.8285 9.52281 16.9772 9.75091 16.0956 9.86608C14.9894 10.0112 13.937 9.79278 12.8943 9.47165C12.5818 9.37384 12.3023 9.22529 12.0645 8.99806C12.0146 8.95091 11.9709 8.88348 11.8467 8.88884C12.0554 9.17273 12.2709 9.40361 12.5587 9.55692C12.9549 9.76731 13.378 9.92162 13.8103 10.0409C15.1258 10.4076 16.4253 10.3061 17.7231 9.93741C18.9302 9.59535 20.0976 9.13124 21.3001 8.7718C22.4809 8.41818 23.6638 8.06398 24.9055 7.99891C26.368 7.92359 27.7761 8.11423 29.0598 8.89213C29.4345 9.1176 29.707 9.43096 29.9889 9.75343C30.3314 10.1458 30.5612 10.5777 30.62 11.0926C30.7838 12.529 30.0768 13.5564 29.0268 14.415C28.9143 14.5079 28.8345 14.4967 28.7607 14.3862C29.5432 13.7017 30.1343 12.8846 30.5404 11.8727C30.409 11.9382 30.382 12.0199 30.35 12.0913C30.1794 12.4885 29.9349 12.8356 29.6828 13.1801C29.4104 13.5534 29.1219 13.91 28.7603 14.2024C28.678 14.2687 28.6019 14.3496 28.4991 14.2351C29.3162 13.4366 29.8657 12.5772 29.7818 12.1947C29.7233 12.35 29.6925 12.4956 29.6171 12.6135C29.2767 13.1586 28.9026 13.6825 28.4308 14.1278C28.3749 14.18 28.3335 14.1818 28.2682 14.155C28.0495 14.06 27.8283 13.9727 27.6086 13.8826C27.5586 13.861 27.5144 13.8612 27.5462 13.7713C27.6466 13.486 27.4119 13.1485 27.1084 13.1275C26.9516 13.1159 26.8832 13.1994 26.9047 13.3752C26.9869 13.3346 27.0194 13.1862 27.1346 13.295C27.044 13.3565 26.9247 13.3978 26.9092 13.5137C26.8899 13.6585 26.8106 13.6146 26.7338 13.5886C26.2661 13.4416 25.7914 13.329 25.3104 13.2275C25.2633 13.2169 25.1932 13.2333 25.1724 13.1644C25.4123 13.0606 25.6379 12.9559 25.801 12.7306C25.9145 12.5722 26.0961 12.477 26.3007 12.4501C26.4896 12.4251 26.6968 12.5907 26.7143 12.7862C26.731 12.9702 26.6198 13.0326 26.4545 13.0327C26.3313 13.0331 26.1306 13.0659 26.1226 12.9494C26.1117 12.787 26.3075 12.7881 26.4478 12.7645C26.4275 12.8537 26.2819 12.788 26.2938 12.9105C26.3636 12.9104 26.4347 12.9239 26.5004 12.9086C26.5748 12.891 26.6394 12.8365 26.6488 12.7502C26.6548 12.6857 26.6084 12.6516 26.5545 12.6242C26.3637 12.5287 25.9992 12.6799 25.9372 12.8827C25.9031 12.9989 25.9418 13.0909 26.0512 13.1431C26.2721 13.2468 26.5008 13.2577 26.72 13.1547C26.8628 13.0885 26.9364 12.9548 26.9233 12.793C26.8943 12.3981 26.4642 12.1479 26.1038 12.3143C26.002 12.3602 25.9053 12.4164 25.7929 12.4745C25.8012 12.158 25.7147 11.9135 25.4369 11.7715C25.1751 11.6368 24.9171 11.699 24.6651 11.827C24.6428 11.1533 24.3884 10.8724 23.7938 10.8338C23.2894 10.8014 22.8576 10.9707 22.5058 11.3256C22.3535 11.4781 22.2714 11.3023 22.1577 11.2862C22.0276 11.2698 22.1243 11.1788 22.1338 11.1274C22.1744 10.914 22.0717 10.7739 21.8489 10.7591C21.7779 10.7549 21.7034 10.7632 21.6276 10.7672C21.6462 10.576 21.6758 10.3912 21.497 10.2622C21.3154 10.1317 21.2093 10.3091 21.0654 10.3802C21.0666 10.1588 21.0572 9.95877 20.9294 9.78585C20.7849 9.59414 20.627 9.60389 20.5 9.8078C20.4007 9.96708 20.4224 10.1521 20.3656 10.3396C20.296 10.1581 20.1924 10.0322 20.0426 9.94202C19.912 9.86296 19.7797 9.84719 19.6453 9.92744C19.5211 10.0026 19.5097 10.1337 19.5086 10.2597C19.5082 10.3366 19.5308 10.412 19.544 10.4876C19.5525 10.5365 19.5612 10.5691 19.4891 10.5954C19.1812 10.7058 19.1215 10.8219 19.1723 11.1504C19.182 11.2037 19.2111 11.2518 19.1348 11.2885C18.9483 11.3827 18.9404 11.5617 18.9862 11.724C19.0314 11.8841 18.993 11.9666 18.8494 12.0214C18.66 11.4623 18.3058 11.1825 17.7655 11.1643C17.329 11.1509 16.9639 11.4559 16.9576 11.8928C16.9558 12.1121 16.8933 12.1568 16.7043 12.1027C16.684 12.0965 16.6638 12.0996 16.6426 12.0983C16.2427 12.0914 15.9675 12.3327 15.9192 12.7344C15.8698 13.1666 16.0631 13.4453 16.4721 13.5382C16.5438 13.5539 16.6328 13.53 16.6874 13.5945C16.7613 13.6795 16.8414 13.6394 16.9166 13.6076C17.4368 13.3774 17.9733 13.2081 18.5469 13.1684C18.6907 13.1578 18.7361 13.1969 18.7438 13.3298C18.2691 13.3825 17.8007 13.4498 17.3443 13.5791C17.2384 13.6098 17.1908 13.7273 17.0564 13.7121C16.8137 13.684 16.5622 13.7095 16.3254 13.6683C16.1569 13.6389 15.94 13.6458 15.8909 13.3843C15.8668 13.2511 15.7379 13.2042 15.6074 13.2299C15.4791 13.2549 15.4542 13.3617 15.4659 13.4749C15.4724 13.5337 15.4903 13.5918 15.4974 13.6271C14.5106 13.8706 13.6144 13.601 12.7536 13.1334C13.1017 13.4335 13.5355 13.5499 13.9187 13.7638C12.5889 13.4568 11.3695 12.9107 10.2828 12.0777C11.1338 12.9692 12.2609 13.3794 13.428 13.8348C12.8519 13.8565 12.3738 13.7053 11.907 13.5092C11.4368 13.3093 10.9781 13.0831 10.5322 12.8348C10.0836 12.5849 9.65412 12.3113 9.287 11.9488C9.65934 12.5566 10.2846 12.8313 10.8682 13.1591C11.46 13.4916 12.0813 13.7604 12.7357 13.9528C11.776 13.8282 10.9037 13.4219 10.0086 13.0868C10.6979 13.5399 11.4757 13.776 12.2649 14.0371C12.1388 14.1313 12.026 14.136 11.9071 14.1003C11.2608 13.9034 10.6056 13.7252 10.0235 13.3598C9.98714 13.337 9.94971 13.2841 9.89186 13.3462C10.4152 13.8228 11.1066 13.9447 11.7469 14.2061C11.6494 14.2765 11.5618 14.2883 11.4641 14.2539C11.2206 14.1702 10.9723 14.0948 10.7303 14.0083C10.5246 13.9354 10.3258 13.8537 10.1232 13.7753C10.4821 14.0725 10.9158 14.2054 11.3591 14.3659C11.1768 14.5195 11.0203 14.4567 10.8546 14.394C10.6943 14.3345 10.5349 14.2608 10.3563 14.2715C10.5374 14.4091 10.773 14.4368 10.9531 14.5794C10.7769 14.7034 10.5806 14.77 10.4489 14.9473C11.7327 14.3356 13.0955 14.1054 14.4994 14.0807C13.8488 14.1806 13.21 14.3331 12.5746 14.4894C11.9413 14.6451 11.309 14.8215 10.7263 15.1313C12.5055 14.5615 14.3075 14.1205 16.1933 14.1482C15.2152 14.259 14.2487 14.4482 13.2923 14.6835C12.3467 14.9159 11.4077 15.1815 10.5106 15.5685C10.9895 15.4099 11.4806 15.2969 11.9643 15.165C12.4588 15.0302 12.9495 14.8894 13.4487 14.7719C13.9305 14.6591 14.4171 14.5729 14.9003 14.4737C14.6971 14.584 14.4705 14.5982 14.2531 14.6471C13.241 14.8741 12.2624 15.2178 11.2916 15.5733C10.5691 15.8391 9.84591 16.0934 9.11019 16.3185C8.75753 16.4269 8.4027 16.536 8.02572 16.5276C8.00008 16.5275 7.95374 16.5282 7.95161 16.5637C7.97287 16.6604 8.06877 16.5579 8.09856 16.6431C7.81679 16.686 7.53699 16.6841 7.25851 16.6959C6.57237 16.7238 6.23809 16.3362 6.04228 15.7184C6.09556 15.7087 6.10077 15.8237 6.17615 15.7663C6.04334 15.3922 6.0836 15.03 6.24885 14.6738C6.33785 14.7454 6.34504 14.8156 6.302 14.9156C6.18677 15.1978 6.21812 15.3756 6.43011 15.5935C6.34683 15.3435 6.29314 15.1344 6.40585 14.9297C6.80668 15.3832 7.05698 15.5442 7.49241 15.6231ZM7.02213 18.854C7.11707 18.9217 7.18614 18.9102 7.26246 18.9083C7.71545 18.8964 8.1503 18.973 8.55619 19.1762C8.60734 19.202 8.70426 19.2249 8.67494 19.298C8.64521 19.3781 8.57097 19.3095 8.51621 19.2963C8.29384 19.2395 8.07407 19.175 7.84162 19.1675C7.72431 19.164 7.61267 19.173 7.52344 19.283C7.96468 19.2532 8.20086 19.3528 8.32762 19.6261C8.18277 19.6067 8.04502 19.5878 7.90727 19.5688C8.02863 19.683 8.18301 19.6858 8.326 19.7243C8.37583 19.7366 8.44257 19.7163 8.47046 19.7857C8.56429 20.0142 8.70574 20.2207 8.71243 20.4889C8.72536 21.1279 8.62691 21.7594 8.59451 22.3942C8.59083 22.4674 8.55744 22.5252 8.51479 22.5832C8.0933 23.1383 7.54001 23.4449 6.84449 23.4986C5.88919 23.573 4.92826 22.6969 4.96277 21.766C4.99253 20.9736 5.4058 20.4486 6.11952 20.1154C6.82455 19.7845 7.50878 20.0969 7.85598 20.637C8.15285 21.1021 8.1242 21.7335 7.78991 22.0582C7.38748 22.45 6.63407 22.5308 6.19273 22.2301C5.91357 22.0396 5.9109 21.7517 6.20077 21.5739C6.46473 21.4124 6.74151 21.429 7.02508 21.5579C6.98588 21.594 6.95955 21.6173 6.93597 21.6423C6.91022 21.6678 6.84577 21.6618 6.87032 21.7273C7.05395 21.7177 7.15396 21.6653 7.15992 21.566C7.1696 21.4284 7.07206 21.3684 6.96658 21.3222C6.74677 21.2228 6.5149 21.2174 6.28847 21.2758C5.98979 21.3511 5.77691 21.599 5.75839 21.86C5.74147 22.1183 5.90584 22.3582 6.20027 22.4841C6.32111 22.5355 6.45049 22.5754 6.58071 22.601C7.20489 22.7154 7.85207 22.4465 8.10855 21.9705C8.38253 21.4641 8.26904 20.78 7.83401 20.303C7.43958 19.8734 6.78855 19.5893 5.95935 19.9953C5.00625 20.4602 4.6784 21.3301 4.81439 22.0548C4.99526 23.0165 5.813 23.6795 6.75218 23.6839C6.84052 23.6835 6.92967 23.634 7.01677 23.6898C6.95811 23.801 6.89886 23.9099 6.83744 24.0195C6.57168 24.4957 6.54101 25.0067 6.66038 25.5217C6.79197 26.0822 7.45953 26.5062 8.07291 26.4326C8.22423 26.4154 8.34759 26.3893 8.40155 26.582C8.45332 26.5146 8.39091 26.4033 8.53649 26.4341C8.83258 26.4967 9.1646 26.8151 9.21101 27.1099C9.22867 27.2192 9.19416 27.3076 9.10792 27.368C9.02544 27.425 8.92814 27.4441 8.82874 27.4032C8.78977 27.388 8.74529 27.3697 8.75044 27.3194C8.75458 27.2741 8.79119 27.2457 8.83579 27.2384C8.92064 27.225 9.00607 27.2137 9.10946 27.2C9.00272 27.0796 8.88832 27.087 8.77148 27.1113C8.65305 27.1384 8.56304 27.2021 8.54611 27.33C8.52758 27.4606 8.63264 27.5139 8.7261 27.5587C8.89826 27.6453 9.15525 27.588 9.28426 27.4441C9.40733 27.304 9.41705 27.071 9.30573 26.8727C9.15001 26.5956 8.90924 26.418 8.5905 26.3056C9.03939 26.0177 9.20926 25.644 9.04328 25.1462C8.92147 24.7785 8.59493 24.5587 8.24785 24.6098C7.87196 24.6663 7.58761 24.9776 7.58315 25.3605C7.58273 25.498 7.59566 25.6504 7.74737 25.7215C7.9227 25.8025 8.08573 25.7682 8.24041 25.6592C8.29164 25.6246 8.32592 25.5874 8.30354 25.5213C8.28465 25.4681 8.23757 25.4575 8.18774 25.4452C8.08807 25.4207 8.13783 25.4935 8.116 25.525C8.06439 25.6017 7.96577 25.6071 7.87277 25.5902C7.79238 25.5768 7.74092 25.5324 7.74068 25.4533C7.7398 25.2068 7.83181 25.0029 8.03497 24.8577C8.2031 24.7382 8.46352 24.7545 8.64572 24.8873C8.85053 25.0349 8.9245 25.2501 8.9258 25.4895C8.92591 25.82 8.73904 26.026 8.46349 26.179C7.91989 26.4783 6.98076 26.1527 6.82191 25.5598C6.63745 24.8714 6.77445 24.2621 7.20362 23.7096C7.25162 23.6455 7.31498 23.5866 7.41376 23.5904C7.5486 23.5985 7.46534 23.7395 7.52783 23.7903C7.65474 23.7167 7.48759 23.5706 7.61742 23.5079C7.9674 23.3373 8.29228 23.1339 8.56488 22.8048C8.57264 22.8772 8.57702 22.911 8.57924 22.9453C8.6709 24.1473 9.03153 25.2587 9.68995 26.274C10.3221 27.2521 11.0501 28.1533 12.0391 28.7867C12.8682 29.3187 13.7146 29.8367 14.6396 30.1964C14.7697 30.2476 14.8469 30.327 14.8974 30.4462C15.0349 30.7771 15.1551 31.1126 15.2172 31.4661C15.2474 31.6395 15.2454 31.8146 15.1932 31.9846C15.1704 32.0558 15.1211 32.1063 15.0393 32.1049C14.9689 32.1029 14.9022 32.0625 14.9055 31.9965C14.9113 31.7575 14.7269 31.6603 14.5804 31.5389C13.9959 31.0601 13.2948 30.9105 12.5662 30.8497C11.6018 30.7683 10.6454 30.6475 9.71109 30.3834C8.22341 29.9651 7.00092 29.1987 6.27018 27.7745C5.8016 26.8597 5.27252 25.9796 4.61986 25.177C4.45278 24.9703 4.26391 24.8301 4.00446 24.7739C3.66839 24.7011 3.3479 24.5821 3.04877 24.4039C2.90501 24.3191 2.86137 24.1562 2.71861 24.0664C2.28107 23.7973 1.93392 23.4225 1.59863 23.0398C1.55802 22.9925 1.49178 22.9451 1.56829 22.8571C1.88376 23.2613 2.26806 23.575 2.69299 23.8405C2.65467 23.767 2.59755 23.7102 2.53666 23.6566C2.22903 23.3946 1.92299 23.1298 1.67163 22.8084C1.58243 22.6927 1.56218 22.5911 1.69355 22.4907C1.87732 22.8464 2.1563 23.1231 2.40025 23.4255C2.64478 23.7301 3.06139 23.6953 3.32443 23.9646C3.34059 23.9207 3.34753 23.9119 3.34478 23.9103C3.32201 23.8861 3.29925 23.862 3.27489 23.8406C2.85448 23.4877 2.49919 23.0825 2.22505 22.6066C2.2043 22.5726 2.12995 22.5297 2.19304 22.4872C2.26206 22.4408 2.28084 22.5195 2.3116 22.5648C2.64414 23.0762 3.09197 23.4706 3.59071 23.8118C3.66246 23.8624 3.73669 23.9309 3.90019 23.9244C3.31997 23.5049 2.81187 23.0941 2.44259 22.5064C2.64114 22.5091 2.79988 22.5108 2.95706 22.5501C3.23694 22.6218 3.35533 22.5598 3.45 22.2877C3.53732 22.0316 3.54482 21.7642 3.5387 21.4982C3.52601 20.9383 3.47191 20.3802 3.48977 19.8215C3.51224 19.1149 3.79091 18.5305 4.45045 18.1862C4.77103 18.0188 5.11691 17.9284 5.47166 17.8799C6.27587 17.7715 7.07235 17.8514 7.87332 17.9393C8.0984 17.9628 8.22813 18.0561 8.3173 18.2673C7.59768 18.0225 6.87062 17.9846 6.13582 18.0046C5.7913 18.0131 5.45333 18.0548 5.14311 18.2868C5.26004 18.3323 5.32165 18.2669 5.39258 18.2363C5.47002 18.2039 5.55181 18.1704 5.6313 18.163C6.55706 18.0825 7.46545 18.1371 8.34982 18.4494C8.47818 18.4941 8.55617 18.5594 8.56286 18.6972C7.32349 18.3543 6.38194 18.3064 6.12695 18.5795C6.22281 18.5724 6.31332 18.5715 6.4031 18.5591C7.13825 18.4622 7.8451 18.5637 8.5251 18.8517C8.62783 18.8963 8.62682 18.9012 8.63106 19.056C8.12523 18.8448 7.60852 18.7318 7.02213 18.854ZM36.3498 20.4456C36.3523 20.4635 36.3548 20.4815 36.3573 20.4994C36.207 20.5467 36.0546 20.5945 35.9043 20.6418C35.664 20.7178 35.4132 20.7896 35.2287 20.9694C34.6508 21.5316 34.145 22.1373 33.957 22.9557C33.7558 23.829 33.5299 24.6972 33.2809 25.5576C32.9674 26.6285 32.3411 27.427 31.3242 27.923C30.5047 28.3218 29.7468 28.8204 29.1091 29.4894C28.9237 29.6834 28.7917 29.9119 28.5969 30.0968C28.3854 30.2978 28.3818 30.3104 28.2014 30.0888C27.7042 29.4841 27.2302 28.8617 26.8499 28.1722C26.8223 28.1214 26.8179 28.0877 26.8324 28.0373C27.02 27.426 27.1723 26.787 27.5487 26.2719C28.1084 25.5028 28.4088 24.5913 28.9829 23.8324C29.4176 23.2573 29.6044 22.5556 29.7589 21.8555C29.7919 21.7093 29.8468 21.6364 30.0022 21.5994C30.4226 21.5007 30.8188 21.5459 31.2022 21.7434C31.6362 21.9646 31.9292 22.3283 32.1802 22.7266C32.6844 23.5225 32.3138 24.7367 31.5116 25.0262C30.9386 25.2332 30.3662 25.0863 30.0125 24.548C29.7802 24.1936 29.6772 23.7394 30.2273 23.2475C30.5013 23.0019 30.8144 22.9366 31.154 23.0923C31.5179 23.2602 31.7538 23.602 31.7246 23.9449C31.7001 24.2355 31.5728 24.4814 31.296 24.5951C31.0907 24.6804 30.9018 24.5658 30.7371 24.4377C30.684 24.396 30.6115 24.334 30.6945 24.2699C30.7752 24.2063 30.8681 24.1535 30.9758 24.1386C31.0161 24.1325 31.0683 24.2232 31.0908 24.1334C31.1031 24.0836 31.091 24.0123 31.0305 23.9866C30.8388 23.9053 30.6722 23.9872 30.5247 24.0966C30.4024 24.1875 30.3811 24.3166 30.4462 24.4551C30.5972 24.7754 31.1911 24.9421 31.4955 24.7488C31.9811 24.4418 32.088 23.7289 31.715 23.2749C31.2929 22.7595 30.5294 22.6289 29.9973 23.1881C29.5814 23.6254 29.506 24.2299 29.8824 24.7225C29.9108 24.7591 29.9511 24.7879 29.9414 24.8557C29.6364 24.7512 29.3366 24.7617 29.0396 24.8692C28.2043 25.1745 27.9236 26.0294 28.4587 26.6798C28.5867 26.8363 28.6857 27.0146 28.8571 27.1503C29.1473 27.3821 29.1529 27.9764 28.9091 28.2652C28.7065 28.508 28.3036 28.5508 28.0555 28.3543C27.8128 28.1609 27.8033 27.8562 28.0331 27.5759C28.1875 27.3878 28.3364 27.3875 28.4744 27.581C28.5296 27.6569 28.5736 27.7429 28.5058 27.8286C28.4588 27.8877 28.3991 27.934 28.3053 27.9056C28.176 27.8658 28.3186 27.7554 28.2337 27.699C28.1409 27.7611 28.1338 27.8561 28.1588 27.9495C28.1879 28.0581 28.2951 28.041 28.3698 28.0419C28.5056 28.0451 28.6124 27.9746 28.667 27.8482C28.7447 27.6691 28.6422 27.5383 28.5295 27.4219C28.4168 27.3055 28.275 27.2364 28.113 27.3007C27.873 27.3953 27.6597 27.8156 27.7055 28.0733C27.765 28.3995 28.0061 28.6305 28.3236 28.6688C28.6794 28.7108 29.0221 28.5305 29.1516 28.2235C29.2927 27.8901 29.2784 27.5587 29.0922 27.2199C29.243 27.2703 29.3731 27.3215 29.5057 27.3558C29.871 27.4511 30.1663 27.3371 30.3754 27.0227C30.5781 26.7194 30.5482 26.3038 30.3104 26.0765C30.0537 25.8311 29.64 25.807 29.3452 26.0186C29.1593 26.1499 29.0833 26.3355 29.1423 26.5036C29.1962 26.6614 29.4277 26.8042 29.6162 26.7955C29.7334 26.7898 29.8266 26.7206 29.7817 26.6139C29.7407 26.5131 29.6528 26.411 29.508 26.3916C29.5045 26.474 29.6011 26.5133 29.5544 26.591C29.4417 26.57 29.3245 26.5409 29.3129 26.402C29.3002 26.2588 29.4207 26.1962 29.5223 26.1411C29.7299 26.0296 30.0087 26.0713 30.1689 26.2262C30.3191 26.3698 30.3481 26.6344 30.2383 26.85C30.1201 27.0865 29.8945 27.2261 29.6642 27.183C29.1839 27.0929 28.7853 26.8739 28.5266 26.4381C28.2959 26.0461 28.3576 25.5989 28.6906 25.2956C29.1193 24.9061 29.7048 24.833 30.2028 25.1278C30.3355 25.2063 30.4651 25.2554 30.6134 25.2878C31.782 25.5402 32.592 24.7413 32.5979 23.5992C32.6005 22.749 32.0932 22.1587 31.431 21.6937C31.1214 21.4764 30.763 21.3723 30.3795 21.4006C30.2085 21.4138 30.0387 21.4663 29.8664 21.5008C29.8363 21.3972 29.8816 21.3059 29.898 21.2107C29.9382 20.9695 29.9384 20.7274 29.9387 20.4853C29.9384 20.4318 29.9253 20.3655 29.8406 20.3882C29.8058 20.3975 29.7561 20.3945 29.7769 20.4634C29.8646 20.7821 29.77 21.0891 29.7207 21.4002C29.6971 21.5555 29.6079 21.6306 29.4536 21.6976C29.6267 20.9017 29.7534 20.1323 29.6883 19.342C29.6866 19.3099 29.6688 19.2518 29.7431 19.2599C30.1311 19.3095 30.5328 19.2624 30.9076 19.4366C31.0753 19.515 31.2329 19.6427 31.4598 19.6471C30.9441 19.2686 30.3913 19.1164 29.7866 19.1877C29.6287 19.2067 29.6618 19.0954 29.6646 19.0365C29.6676 18.9868 29.5774 18.876 29.754 18.8752C30.3468 18.8723 30.9445 18.8099 31.4916 19.1405C31.4173 19.0021 31.2908 18.9382 31.1526 18.8915C30.7039 18.7371 30.2406 18.7192 29.7766 18.7597C29.5991 18.7747 29.6404 18.6682 29.6216 18.5895C29.597 18.489 29.6307 18.4497 29.749 18.4483C30.4261 18.4298 31.0943 18.4393 31.7253 18.7357C31.7455 18.6721 31.7031 18.6439 31.659 18.6185C31.5273 18.5351 31.3782 18.4912 31.2309 18.4539C30.7501 18.336 30.2621 18.2782 29.7676 18.3176C29.6581 18.326 29.5544 18.3212 29.5762 18.1594C29.583 18.1064 29.539 18.0553 29.5685 17.9916C30.2231 18.0024 30.86 18.1296 31.4714 18.3615C32.2107 18.6359 32.807 19.1069 33.2533 19.7647C33.4149 20.003 33.5031 20.254 33.4874 20.5515C33.4622 21.0657 33.7691 21.2814 34.2391 21.081C34.5212 20.9612 34.7863 20.804 35.0599 20.6609C35.4692 20.4511 35.8951 20.3556 36.3498 20.4456ZM32.3006 16.2354C32.0269 16.0736 31.7872 15.961 31.5312 15.8829C30.6876 15.6272 29.8215 15.4961 28.9398 15.4717C28.8552 15.4687 28.7718 15.4702 28.6896 15.4759C28.6144 15.4821 28.5858 15.4362 28.5794 15.3774C28.5715 15.2957 28.6406 15.3191 28.682 15.3173C28.7936 15.3084 28.9049 15.3065 29.0177 15.3019C31.4584 15.2205 33.5992 15.9479 35.348 17.6882C35.8333 18.1703 36.3015 18.6756 36.6103 19.2981C36.7277 19.5367 36.8236 19.7903 36.8037 20.0633C36.7883 20.2839 36.6964 20.3318 36.4951 20.267C36.0822 20.1332 35.6688 20.1625 35.2616 20.3019C34.8761 20.4355 34.5426 20.6761 34.1717 20.8383C34.0548 20.8883 33.9283 20.9548 33.8171 20.8612C33.7114 20.7708 33.7309 20.6352 33.7522 20.5062C33.7923 20.265 33.7661 20.0369 33.6528 19.8136C33.4307 19.3843 33.1231 19.0268 32.7504 18.7217C31.8541 17.9913 30.7992 17.7549 29.6743 17.7351C29.6394 17.7351 29.6047 17.7445 29.5692 17.7423C29.4895 17.7404 29.457 17.6886 29.4613 17.6176C29.4686 17.5319 29.5337 17.575 29.5746 17.5803C29.7538 17.5974 29.9331 17.6239 30.1117 17.6389C30.2477 17.6513 30.3883 17.7067 30.5364 17.6601C30.4935 17.5784 30.4203 17.6004 30.3634 17.5877C30.0909 17.535 29.8197 17.4611 29.5399 17.4592C29.4232 17.4579 29.3941 17.3842 29.3959 17.2953C29.4002 17.1638 29.5012 17.2368 29.5515 17.242C29.9636 17.2945 30.3764 17.3585 30.7869 17.4137C30.8301 17.4184 30.8947 17.4686 30.9356 17.3692C30.8814 17.3581 30.83 17.3486 30.7801 17.3364C30.3409 17.226 29.8948 17.1593 29.4494 17.1041C29.3625 17.0925 29.3139 17.0589 29.318 16.9787C29.3232 16.8679 29.4192 16.9306 29.4618 16.9332C29.816 16.9523 30.1684 16.9906 30.5115 17.0895C30.5641 17.1033 30.6216 17.1531 30.6843 17.0828C30.5267 16.99 30.3585 16.9443 30.1915 16.9029C29.9347 16.8391 29.6728 16.7998 29.4076 16.7918C29.3116 16.7896 29.2152 16.7688 29.2231 16.6503C29.2312 16.5155 29.3475 16.5937 29.3978 16.5989C29.8362 16.628 30.2676 16.6917 30.6928 16.8105C30.907 16.8718 31.1209 16.9402 31.351 16.939C31.3314 16.9094 31.3065 16.8858 31.2785 16.877C30.84 16.7431 30.4081 16.5819 29.9501 16.5231C29.709 16.4922 29.4695 16.4493 29.2251 16.4496C29.1319 16.449 29.0708 16.3862 29.0739 16.3109C29.0783 16.2492 29.1605 16.2691 29.2151 16.2731C30.1122 16.3376 30.9995 16.4699 31.8536 16.7648C32.0406 16.8287 32.2277 16.8927 32.4246 16.9586C32.4223 16.8545 32.3552 16.8562 32.3096 16.8335C31.5478 16.4836 30.7362 16.3124 29.9113 16.1959C29.6303 16.1549 29.3458 16.1356 29.0608 16.1143C28.9751 16.107 28.9287 16.0729 28.917 15.9945C28.9034 15.9004 28.9728 15.9423 29.0121 15.9411C30.1598 15.9594 31.2677 16.1677 32.3163 16.6501C32.3988 16.6885 32.4742 16.7614 32.595 16.7174C32.3642 16.5768 32.1604 16.4242 31.9212 16.3394C30.9583 15.9945 29.967 15.7784 28.9387 15.7629C28.8847 15.7611 28.7874 15.8151 28.7805 15.7285C28.773 15.6397 28.8681 15.6469 28.9406 15.6484C30 15.6671 31.0348 15.8111 32.0321 16.1886C32.0984 16.2104 32.1514 16.2777 32.3006 16.2354ZM7.86632 17.2965C7.19735 17.1452 6.57695 17.1578 5.95325 17.2016C5.32521 17.2465 4.70023 17.3116 4.09788 17.5218C5.34116 17.3842 6.58292 17.1888 7.82713 17.4629C7.23306 17.4522 6.64013 17.3155 6.0432 17.4591C6.25165 17.4987 6.4592 17.5176 6.66893 17.5359C6.89067 17.5556 7.11184 17.5731 7.33358 17.5928C7.76405 17.6358 7.81939 17.6512 7.939 17.7588C7.85585 17.7438 7.78965 17.7313 7.72128 17.7194C6.86275 17.5817 6.00299 17.5002 5.13759 17.6669C3.93845 17.8997 3.18718 18.5619 3.1512 19.9564C3.14567 20.179 3.15709 20.4041 3.16576 20.6275C3.18356 21.1022 3.20846 21.5774 3.14719 22.0523C3.13185 22.1774 3.1002 22.2418 2.93725 22.2156C2.6277 22.1636 2.31168 22.1482 1.99767 22.1229C1.53348 22.0844 1.35436 22.2324 1.29988 22.6893C1.29499 22.7232 1.31706 22.7708 1.27278 22.7966C-0.0179069 20.9592 0.00276859 18.7518 1.97603 17.1082C2.97692 16.2744 4.17838 16.0502 5.45476 16.2272C5.68927 16.2598 5.95065 16.2364 6.14522 16.424C5.23815 16.383 4.35048 16.458 3.47089 16.7542C3.54369 16.8347 3.59693 16.7902 3.64587 16.7818C4.47653 16.6244 5.31204 16.5285 6.15951 16.625C6.32506 16.6434 6.46603 16.6918 6.61201 16.8109C6.09294 16.7848 5.5962 16.7899 5.09893 16.8277C4.60383 16.8649 4.12909 16.9781 3.67096 17.1707C3.93048 17.1664 4.17556 17.0821 4.42794 17.0424C5.42876 16.8859 6.4237 16.8986 7.4187 17.0766C7.57239 17.1029 7.70308 17.1563 7.86632 17.2965ZM27.2877 14.874C27.1306 14.9393 27.0149 14.9331 26.9009 14.8985C25.9763 14.6272 25.0214 14.5292 24.0709 14.4045C23.8567 14.3781 23.6381 14.3529 23.4211 14.4204C24.4284 14.5485 25.4345 14.6723 26.4175 14.9186C25.5349 14.9689 24.6881 14.7186 23.8195 14.6302C23.9045 14.6609 23.9918 14.6911 24.0768 14.7218C21.8534 14.4331 19.6645 13.9513 17.3909 13.7272C17.6316 13.6092 17.8452 13.5985 18.0521 13.5803C18.441 13.546 18.8334 13.4036 19.222 13.5857C19.2803 13.612 19.3637 13.6106 19.4261 13.5916C19.5222 13.5681 19.5832 13.596 19.6571 13.646C19.8716 13.7864 20.1117 13.8571 20.3713 13.8876C20.3199 13.8176 20.2548 13.7745 20.1866 13.7369C19.5212 13.3473 19.237 12.3993 19.5946 11.71C19.7662 11.3777 20.0246 11.1083 20.3173 10.8716C20.4109 10.7953 20.5006 10.7829 20.6202 10.8556C20.8483 10.9946 21.0641 11.1486 21.2714 11.3142C21.6994 11.6604 22.0082 12.092 22.0586 12.6534C22.0769 12.8696 22.1567 13.1415 21.8776 13.3071C22.1746 13.295 22.4564 13.287 22.7349 13.2752C23.1305 13.2576 23.5273 13.2095 23.9228 13.2525C25.4041 13.4212 26.8314 13.8138 28.2138 14.3605C28.378 14.4259 28.558 14.4637 28.7158 14.6007C28.5348 14.6376 28.402 14.7849 28.2175 14.6783C27.8816 14.4844 27.5174 14.3586 27.1531 14.2327C25.7131 13.7317 24.2426 13.3949 22.7108 13.3678C22.5237 13.3644 22.333 13.3736 22.1574 13.4742C23.1487 13.56 24.1356 13.647 25.1038 13.8811C26.0774 14.1183 27.0416 14.3813 27.9988 14.7742C27.7488 14.8924 27.5518 14.8521 27.3368 14.7793C26.3248 14.4337 25.2885 14.197 24.2226 14.0846C24.1696 14.0778 24.1192 14.0634 24.0647 14.1292C25.1549 14.2979 26.2126 14.5359 27.2877 14.874ZM17.9818 0.453129C17.6747 1.00092 17.6172 1.56797 17.5608 2.13936C17.4764 2.98827 17.499 3.84573 17.3905 4.69177C17.3789 4.77868 17.391 4.84991 17.2548 4.82821C17.1313 4.81011 17.1076 4.76524 17.1286 4.65255C17.1905 4.31011 17.2474 3.96667 17.3022 3.62381C17.3131 3.56037 17.3627 3.49354 17.2982 3.41773C17.2265 3.49747 17.2254 3.59784 17.1958 3.68723C17.0959 4.00031 17.05 4.32447 16.9966 4.64604C16.9852 4.71659 16.9773 4.80016 16.8794 4.78217C16.7695 4.76275 16.8461 4.68402 16.8513 4.63376C16.8649 4.5021 16.8933 4.37347 16.9047 4.24239C16.9138 4.13753 16.954 4.02669 16.8911 3.92249C16.8222 4.16906 16.7702 4.41807 16.7232 4.66809C16.7072 4.75617 16.6536 4.78215 16.5738 4.77095C16.4727 4.75847 16.4815 4.69561 16.4905 4.61638C16.5007 4.50659 16.5682 4.40239 16.5321 4.26774C16.4403 4.38545 16.4129 4.50916 16.3942 4.63054C16.3806 4.7273 16.3512 4.76543 16.2525 4.76163C15.9666 4.75445 15.6784 4.77347 15.3939 4.8148C15.2595 4.83451 15.2439 4.78514 15.2331 4.65771C15.1981 4.26673 15.1366 3.88057 15.0858 3.49149C15.063 3.49297 15.0407 3.49661 15.0178 3.49809C15.0437 3.74252 15.0604 3.9871 15.0993 4.22804C15.1268 4.39991 15.1313 4.57326 15.1424 4.74486C15.1459 4.79279 15.1409 4.85232 15.0805 4.86152C14.9919 4.87828 15.0272 4.80133 15.021 4.76108C14.982 4.48524 14.961 4.20692 14.909 3.93457C14.8327 3.51974 14.7717 3.10085 14.63 2.68494C14.5379 2.85392 14.6761 2.99611 14.6494 3.15689C14.631 3.13157 14.6149 3.11494 14.6102 3.09756C14.4723 2.54798 14.3473 1.99491 14.2664 1.43238C14.2165 1.08964 14.24 0.769121 14.6008 0.560725C14.9335 0.369161 15.2588 0.419315 15.5946 0.508558C15.9726 0.607453 16.3409 0.748503 16.7423 0.717755C16.8246 0.712009 16.8663 0.728758 16.8593 0.833038C16.8258 1.40295 16.935 1.95793 17.0441 2.5129C17.0786 2.6852 17.1478 2.83892 17.2282 3.01753C17.284 2.93042 17.2532 2.88513 17.2438 2.84112C17.098 2.18423 17.0432 1.51928 17.0543 0.848301C17.0564 0.777915 17.0343 0.695393 17.1366 0.686581C17.4264 0.6648 17.6832 0.563407 17.9818 0.453129ZM26.2156 35.5599C25.7949 35.2234 25.3288 35.0736 24.8643 34.9211C24.7366 34.8786 24.7449 34.8228 24.7607 34.7254C24.7934 34.5258 24.8303 34.3251 24.8466 34.1252C24.9049 33.4393 24.8525 32.7574 24.7386 32.0803C24.7278 32.0227 24.6669 31.9343 24.8021 31.9353C25.3235 31.9352 25.8436 31.9565 26.349 32.1143C26.4455 32.1443 26.4911 32.1926 26.5038 32.3009C26.6324 33.3976 26.4829 34.4642 26.2156 35.5599ZM26.6942 28.5468C26.7258 28.5779 26.7457 28.5912 26.7547 28.6074C27.4775 29.8544 28.4259 30.8921 29.6085 31.7181C29.8894 31.9151 30.1634 32.121 30.3898 32.3839C30.4904 32.4989 30.4776 32.5815 30.3191 32.6239C30.1953 32.6571 30.0712 32.6717 29.9453 32.645C28.8703 32.4116 27.9067 31.9599 27.1239 31.1665C27.0118 31.0522 26.9142 30.9224 26.7983 30.8115C26.6675 30.6883 26.6322 30.6 26.6686 30.397C27.092 31.0563 27.611 31.5946 28.3887 31.8913C28.3496 31.7714 28.2665 31.7564 28.2043 31.7242C27.9303 31.5789 27.6739 31.4125 27.4623 31.1875C26.9664 30.6571 26.4926 30.1137 26.4148 29.3455C26.4114 29.3068 26.3675 29.2558 26.4538 29.2303C26.4348 29.3332 26.4288 29.4325 26.5501 29.5117C26.5822 29.1796 26.596 28.8664 26.6942 28.5468ZM23.6671 12.5762C24.0861 12.6455 24.3517 12.4556 24.5596 12.1369C24.6372 12.0183 24.7641 11.9448 24.8886 11.8881C25.2058 11.7426 25.584 11.9904 25.5975 12.3359C25.6053 12.5736 25.5218 12.7659 25.3215 12.887C25.0851 13.0295 24.828 13.017 24.5746 12.9312C24.4951 12.9037 24.4667 12.8414 24.5042 12.7639C24.5843 12.6028 24.705 12.4797 24.8706 12.4027C24.935 12.3738 24.9958 12.3924 25.0403 12.4457C25.0882 12.5027 25.0432 12.552 25.0134 12.5972C24.9102 12.7505 24.93 12.4682 24.834 12.5615C24.8018 12.6585 24.7821 12.7849 24.8998 12.8418C25.0125 12.8977 25.1109 12.8131 25.1862 12.7208C25.2723 12.6163 25.3134 12.5005 25.2485 12.3713C25.183 12.2398 25.0664 12.178 24.9224 12.1793C24.5631 12.1848 24.2165 12.7153 24.3613 13.0559C24.1773 13.047 23.9976 13.0277 23.8199 13.0334C23.4231 13.0466 23.0767 12.909 22.7499 12.7056C22.4319 12.5092 22.2546 11.891 22.4668 11.6666C22.8622 11.2487 23.3333 10.9828 23.9404 11.0855C24.2915 11.145 24.4717 11.3831 24.433 11.7426C24.3936 12.1255 24.1173 12.3974 23.7865 12.379C23.6026 12.37 23.577 12.3094 23.6728 12.1371C23.7279 12.0385 23.7391 11.9238 23.643 11.8518C23.5585 11.7884 23.4728 11.8509 23.4041 11.9158C23.2275 12.0819 23.2128 12.279 23.3846 12.4424C23.4466 12.5003 23.4668 12.567 23.4969 12.6358C23.5929 12.8638 23.7959 12.97 24.0129 12.9025C23.8731 12.8236 23.7078 12.7887 23.6671 12.5762ZM21.4906 34.1004C21.4453 34.0963 21.4159 34.0995 21.3907 34.0923C20.5002 33.8095 19.6524 33.4338 18.8403 32.9741C18.7715 32.9344 18.7471 32.8781 18.7285 32.8086C18.632 32.4573 18.4294 32.1788 18.1389 31.9634C17.9942 31.8578 17.8373 31.7672 17.6857 31.6705C17.7944 31.5203 17.907 31.3761 18.0053 31.2217C18.0834 31.0961 18.1429 31.1011 18.2363 31.2064C18.3113 31.2864 18.4062 31.3541 18.4988 31.413C19.2083 31.863 19.8741 32.3759 20.5494 32.8723C20.9668 33.1794 21.3385 33.55 21.4906 34.1004ZM18.7645 33.3599C19.5546 33.9372 20.3845 34.3851 21.3237 34.6153C21.6999 34.7077 21.7031 34.7022 21.6928 35.0983C21.6903 35.1758 21.6807 35.2528 21.6683 35.3283C21.6551 35.4179 21.6188 35.4649 21.5083 35.4782C21.2329 35.5101 20.9664 35.4884 20.7013 35.4198C19.8743 35.2085 19.138 34.8146 18.4708 34.2881C18.409 34.2395 18.272 34.1715 18.3077 34.1223C18.3881 34.0053 18.3628 33.8329 18.4815 33.7545C18.6239 33.6605 18.7057 33.5315 18.7645 33.3599ZM23.5313 38.737C23.5404 38.4669 23.541 38.2084 23.4399 37.9702C23.3905 37.8554 23.4031 37.7892 23.4822 37.6935C23.8874 37.2079 24.2391 36.6877 24.4213 36.0733C24.4585 35.9516 24.5127 35.9627 24.6015 35.9901C24.9656 36.1067 25.2461 36.3457 25.5058 36.6113C25.6084 36.7165 25.6306 36.8339 25.5327 36.9811C25.388 37.1968 25.2427 37.4103 25.062 37.596C24.6089 38.0503 24.141 38.4759 23.5313 38.737ZM16.4596 33.5748C16.3617 33.4963 16.2009 33.1739 16.2006 33.06C16.1931 32.6151 16.3717 32.2739 16.7717 32.0643C17.1805 31.8524 17.5571 31.9377 17.9037 32.2149C18.2525 32.4915 18.4917 32.8022 18.3696 33.2934C18.3236 33.478 18.2131 33.5867 18.0958 33.7136C17.9983 33.8188 17.9175 33.8475 17.792 33.7787C17.7078 33.7337 17.6345 33.651 17.5179 33.659C17.5503 33.7713 17.6714 33.7714 17.7155 33.8667C17.4617 33.8835 17.2686 33.7537 17.0715 33.6436C17.0308 33.6219 16.9871 33.5545 16.9497 33.5971C16.8175 33.7465 16.8273 33.5833 16.8068 33.5329C16.7487 33.3856 16.625 33.4537 16.531 33.4416C16.4326 33.4307 16.4767 33.526 16.4596 33.5748ZM12.6859 31.218C12.6765 31.3741 12.8366 31.4592 12.7735 31.5623C12.6891 31.6989 12.7473 31.7252 12.8586 31.7582C12.9117 31.7743 13.3012 32.3938 13.2944 32.4468C13.2926 32.4659 13.2732 32.4804 13.2648 32.5013C13.1942 32.6808 13.2883 32.893 13.4789 32.9094C13.6198 32.9229 13.6708 33 13.7323 33.0906C13.8134 33.2108 13.8929 33.3338 13.9783 33.4529C14.0163 33.5079 14.0357 33.5539 14.0265 33.6239C13.9989 33.8338 14.0998 34.0279 14.2922 34.0857C14.6057 34.1786 14.7014 34.4835 14.9091 34.6769C14.9429 34.7074 14.9134 34.7362 14.9052 34.7664C14.8315 35.0561 15.098 35.3385 15.4062 35.3071C15.5172 35.296 15.6146 35.3118 15.525 35.4638C15.4344 35.6208 15.4842 35.7633 15.5878 35.8892C15.6974 36.0204 15.8231 36.1334 16.021 36.0641C16.0589 36.0493 16.1075 36.0223 16.1308 36.0742C16.1693 36.157 16.1828 36.2511 16.1653 36.342C16.1538 36.4032 16.0868 36.3793 16.0399 36.3779C15.617 36.3632 15.4425 36.2331 15.3505 35.8201C15.3081 35.636 15.223 35.5354 15.0446 35.4692C14.745 35.3586 14.4972 35.155 14.5236 34.8104C14.5436 34.5374 14.4281 34.4194 14.218 34.3127C13.8434 34.1222 13.6603 33.8035 13.7024 33.3872C13.7215 33.1982 13.6647 33.125 13.4884 33.1187C13.2576 33.1084 13.1337 32.9763 13.0876 32.7606C13.0602 32.6236 13.0229 32.4846 13.0234 32.3472C13.0242 32.2026 12.9847 32.1248 12.8478 32.0567C12.6019 31.9294 12.4979 31.4545 12.6859 31.218ZM12.857 31.2745C13.2019 31.224 13.3815 31.3644 13.4851 31.6555C13.5464 31.8323 13.6397 31.9981 13.7362 32.1585C14.395 33.2272 15.1169 34.2534 15.941 35.201C16.0689 35.3483 16.0689 35.3483 16.0301 35.5333C14.6883 34.3217 13.7587 32.8158 12.857 31.2745ZM17.9613 13.0414C18.1422 12.6741 18.1066 12.3414 17.8755 12.1217C17.8222 12.0708 17.7641 12.0189 17.697 12.0811C17.6481 12.1245 17.6098 12.1813 17.6727 12.2598C17.7674 12.3788 17.6498 12.4522 17.5773 12.4251C17.433 12.3729 17.2683 12.3054 17.1875 12.1688C17.0303 11.9036 17.2862 11.4254 17.5978 11.4071C18.2462 11.3684 18.807 11.7674 18.5836 12.593C18.4886 12.942 18.3613 13.0227 17.9613 13.0414ZM16.0513 35.0481C15.1493 33.8444 14.2326 32.7168 13.5462 31.3971C13.7265 31.4186 13.8538 31.4939 13.991 31.5456C14.0925 31.5859 14.1178 31.628 14.0745 31.7443C13.9747 32.0061 14.0848 32.2257 14.3478 32.3042C14.4388 32.331 14.4507 32.3581 14.4379 32.4406C14.4071 32.6468 14.5164 32.7594 14.7099 32.7867C14.787 32.7963 14.7889 32.8121 14.7923 32.8857C14.8024 33.2275 14.9 33.3223 15.2319 33.3451C15.1808 33.7103 15.2626 33.8071 15.668 33.8521C15.7063 33.8558 15.7086 33.8645 15.7102 33.8966C15.7247 34.1069 15.8745 34.1971 16.0498 34.2432C16.1424 34.2673 16.1517 34.302 16.1373 34.3873C16.1047 34.5869 16.0841 34.788 16.0513 35.0481ZM9.59714 4.02884C9.60094 4.0604 9.61068 4.08805 9.61056 4.11368C9.60766 4.58928 9.33824 4.91285 8.97823 5.16759C8.33099 5.62731 7.58376 5.91364 6.9236 6.35122C7.70805 5.45673 8.78066 4.89933 9.59714 4.02884ZM17.0984 30.0519C17.2094 30.1711 17.2875 30.2713 17.3832 30.3504C17.5148 30.4594 17.5033 30.5556 17.4183 30.6901C17.346 30.8025 17.2248 30.8886 17.1944 31.062C17.3841 30.9273 17.4649 30.7335 17.5976 30.5862C17.612 30.5963 17.6263 30.6064 17.6385 30.6171C17.4767 30.856 17.3171 31.0943 17.1559 31.3353C17.3021 31.2728 17.3703 31.1452 17.4607 31.0395C17.549 30.9344 17.5889 30.7794 17.7574 30.7133C17.6832 30.9403 17.5419 31.0992 17.4154 31.2611C17.0498 31.7385 17.0394 31.7343 16.4931 31.485C16.4876 31.4818 16.4799 31.4792 16.4744 31.476C16.3058 31.4374 16.3237 31.3651 16.4216 31.2527C16.7124 30.9048 16.9856 30.543 17.0984 30.0519ZM17.6622 13.0284C17.584 13.0494 17.5019 13.0644 17.4255 13.0919C17.2428 13.1571 17.087 13.2012 16.9998 12.9452C16.9539 12.8086 16.8025 12.756 16.6657 12.8276C16.5355 12.8974 16.5039 13.0315 16.5417 13.1727C16.5569 13.2292 16.5915 13.2804 16.6214 13.3399C16.3047 13.3479 16.1448 13.2116 16.1254 12.9305C16.1037 12.6151 16.2724 12.3674 16.5244 12.3348C16.8602 12.2937 17.5717 12.5778 17.6622 13.0284ZM25.9732 36.0973C25.9394 36.0668 25.9161 36.0405 25.8896 36.0197C25.5496 35.75 25.1416 35.6172 24.7476 35.4668C24.6361 35.4245 24.6016 35.3825 24.6423 35.2739C24.6611 35.2223 24.6765 35.167 24.6827 35.1118C24.693 35.0113 24.7368 34.9925 24.8302 35.028C25.1593 35.1447 25.4858 35.2597 25.7982 35.418C26.2041 35.6212 26.2192 35.6776 25.9732 36.0973ZM24.481 35.8967C24.5031 35.8139 24.5312 35.7366 24.544 35.654C24.5647 35.5228 24.6268 35.5201 24.7301 35.5669C25.0104 35.692 25.2996 35.7984 25.5724 35.9394C25.9553 36.1347 25.9564 36.1647 25.764 36.5328C25.7408 36.5763 25.7329 36.6249 25.7111 36.6913C25.3909 36.2348 24.9257 35.9405 24.481 35.8967ZM15.5447 31.5762C15.7772 31.749 15.991 31.9128 16.208 32.0711C16.2659 32.1138 16.249 32.1462 16.2192 32.1914C16.0682 32.4181 15.9961 32.6702 15.9894 32.9839C15.7869 32.7146 15.6051 32.4794 15.4265 32.2386C15.3981 32.202 15.3701 32.1583 15.4068 32.1042C15.5122 31.9503 15.5365 31.7715 15.5447 31.5762ZM7.17548 7.22173C7.26017 7.19904 7.2884 7.19147 7.31446 7.18449C7.40191 7.16339 7.50716 7.13053 7.56952 7.20692C7.62855 7.27955 7.55639 7.36639 7.51723 7.4374C7.38644 7.67028 7.20377 7.86587 7.03761 8.07099C6.99003 8.12796 6.95238 8.12641 6.90351 8.07434C6.77184 7.9304 6.64928 7.77703 6.54235 7.6125C6.49084 7.5332 6.50108 7.49321 6.59213 7.45951C6.80507 7.37685 7.01784 7.28492 7.17548 7.22173ZM18.7984 33.0784C19.6253 33.6017 20.4951 34.025 21.4469 34.2587C21.6063 34.2975 21.6116 34.3869 21.6155 34.5231C20.6139 34.2771 19.724 33.8313 18.8773 33.2947C18.8018 33.2474 18.7435 33.1862 18.7984 33.0784ZM15.1624 30.445C15.5705 30.6475 15.9335 30.8296 16.3596 30.9086C16.31 30.9754 16.2894 31.0112 16.2599 31.0401C16.1579 31.1372 16.1301 31.3635 15.9939 31.3417C15.8824 31.3251 15.7996 31.1378 15.6953 31.0354C15.6039 30.9458 15.5746 30.7931 15.4121 30.7342C15.4273 30.7907 15.4344 30.826 15.4453 30.858C15.4584 30.8894 15.478 30.919 15.4954 30.9493C15.7115 31.3127 15.9689 31.6394 16.3396 31.8589C16.3705 31.8786 16.4513 31.8849 16.4041 31.9604C16.3562 32.0337 16.313 31.9941 16.2676 31.955C16.0502 31.7689 15.8311 31.5855 15.6153 31.3967C15.5361 31.3271 15.4666 31.2503 15.4397 31.1411C15.3841 30.9163 15.2819 30.7086 15.1624 30.445ZM20.661 36.329C19.8137 36.598 19.1598 36.3728 18.7407 35.6775C18.7155 35.6354 18.6071 35.5783 18.7156 35.5143C18.8101 35.4587 18.8218 35.537 18.8556 35.6025C18.9385 35.7641 19.0716 35.8611 19.261 35.8383C19.3284 35.8296 19.3579 35.8612 19.4021 35.8959C19.6603 36.1037 20.0002 36.1128 20.2857 36.2574C20.3154 36.2727 20.3701 36.251 20.4053 36.2346C20.5161 36.1793 20.5863 36.2327 20.661 36.329ZM21.5054 35.6582C21.4532 35.7676 21.3657 35.7538 21.2829 35.7574C20.9125 35.7822 20.5651 35.6844 20.2253 35.5543C19.6594 35.3359 19.0875 35.1214 18.5842 34.7721C18.4386 34.6715 18.234 34.568 18.2536 34.3114C19.2123 35.0833 20.2132 35.7089 21.5054 35.6582ZM10.2272 2.67993C10.4118 2.50013 10.6043 2.402 10.7946 2.30445C11.0628 2.16742 11.337 2.32205 11.3601 2.62542C11.3729 2.80354 11.2905 2.93036 11.1099 2.98575C10.959 3.03083 10.8044 3.04434 10.721 2.88977C10.654 2.7611 10.6974 2.61912 10.7981 2.50836C10.8538 2.44689 10.9302 2.41942 11.0009 2.47495C11.0485 2.51342 11.1301 2.56603 11.0769 2.64546C11.0354 2.70778 10.9713 2.75522 10.8866 2.68247C10.8418 2.6456 10.7959 2.67418 10.7667 2.72157C10.7413 2.76563 10.7749 2.78688 10.8062 2.79944C10.945 2.84837 11.0775 2.81287 11.1669 2.71211C11.26 2.60802 11.1852 2.50239 11.1053 2.42139C10.9904 2.30552 10.7925 2.30503 10.7088 2.45314C10.5991 2.64314 10.4408 2.66925 10.2272 2.67993ZM13.1196 15.0812C11.7746 15.5603 10.4806 16.1863 9.07127 16.4685C10.4359 16.054 11.755 15.4957 13.1196 15.0812ZM16.3104 33.7823C15.8243 33.4191 15.4636 32.9502 15.127 32.4585C15.0929 32.4094 15.0568 32.3702 15.1412 32.329C15.211 32.294 15.2455 32.3011 15.2935 32.3673C15.4581 32.5909 15.6196 32.82 15.8084 33.0207C16.0227 33.2473 16.0551 33.5854 16.3104 33.7823ZM10.8504 5.45731C10.9456 5.4737 11.0132 5.4742 11.0581 5.39001C11.1031 5.30581 11.0649 5.24156 11.0019 5.18863C10.8779 5.08219 10.7443 5.0528 10.5975 5.13871C10.5575 5.16338 10.5196 5.2131 10.4771 5.15001C10.443 5.10095 10.4056 5.04814 10.4475 4.97872C10.5011 4.8922 10.5725 4.85446 10.674 4.85984C10.8863 4.87045 11.0242 4.9941 11.1193 5.16647C11.1963 5.30642 11.1909 5.46849 11.0452 5.55874C10.8994 5.64899 10.7615 5.58587 10.6696 5.4429C10.6305 5.38357 10.5476 5.31734 10.638 5.24656C10.7225 5.17969 10.8191 5.18407 10.9075 5.25348C11.0258 5.34747 10.8862 5.38254 10.8504 5.45731ZM29.0175 23.4926C29.1472 22.969 29.283 22.4508 29.4001 21.9237C29.4341 21.7726 29.5148 21.8045 29.6193 21.8208C29.4901 22.407 29.3317 22.9801 29.0175 23.4926ZM19.7931 10.5139C19.7879 10.4944 19.7693 10.4598 19.772 10.4265C19.7786 10.3293 19.6978 10.1927 19.8147 10.1427C19.9317 10.0928 20.0074 10.2191 20.0824 10.2991C20.1018 10.3195 20.1262 10.3409 20.1326 10.3648C20.1533 10.4593 20.2655 10.548 20.1767 10.6509C20.1269 10.7085 20.0724 10.8092 19.9814 10.7824C19.8615 10.7517 19.8139 10.6434 19.7931 10.5139ZM19.4402 13.4272C19.2975 13.4677 19.2905 13.3113 19.1694 13.3112C18.9835 13.3121 18.8609 13.1239 18.8966 12.9444C18.9137 12.8607 18.9695 12.8085 19.0567 12.8037C19.1281 12.8009 19.2075 12.7843 19.2312 12.899C19.2708 13.0815 19.3517 13.2531 19.4402 13.4272ZM20.7288 9.85358C20.9147 10.0784 20.8581 10.3101 20.8253 10.5353C20.82 10.5763 20.8175 10.6538 20.7568 10.6444C20.6934 10.6335 20.598 10.6078 20.5962 10.5315C20.5919 10.3069 20.5689 10.0733 20.7288 9.85358ZM26.8635 32.158C26.8348 31.8771 26.8065 31.6239 26.7766 31.3387C27.2139 31.7545 27.2211 31.8248 26.8635 32.158ZM9.74848 6.08774C9.84663 6.05445 9.89915 6.12883 9.92359 6.22004C9.9585 6.35034 9.84737 6.55235 9.72603 6.56857C9.596 6.58712 9.52211 6.44166 9.51567 6.38287C9.5048 6.25544 9.58185 6.13471 9.74848 6.08774ZM10.4265 2.8849C10.4494 2.95323 10.4799 3.01489 10.5055 3.07554C10.557 3.18974 10.4469 3.25649 10.3811 3.33231C10.3329 3.38712 10.2838 3.3514 10.2613 3.31088C10.1877 3.18396 10.1325 3.04746 10.1835 2.89881C10.212 2.81434 10.287 2.764 10.3732 2.76419C10.4664 2.7648 10.3949 2.85381 10.4265 2.8849ZM17.2303 31.604C17.4344 31.384 17.6047 31.1685 17.7562 30.9347C17.7828 30.895 17.787 30.7891 17.8837 30.8633C17.9682 30.9268 17.9183 30.9751 17.8735 31.0336C17.7598 31.1828 17.6385 31.3294 17.5419 31.4902C17.4676 31.6125 17.3799 31.65 17.2303 31.604ZM11.2694 3.32937C11.2086 3.18042 11.3745 3.122 11.4288 3.10746C11.5883 3.06005 11.6055 3.237 11.6638 3.3331C11.7053 3.40111 11.7173 3.49799 11.6183 3.54546C11.5003 3.60034 11.346 3.50205 11.2694 3.32937ZM15.5263 14.4038C16.1403 14.3067 16.7494 14.2343 17.368 14.2757C16.7516 14.3035 16.1438 14.4501 15.5263 14.4038ZM11.4734 2.38793C11.4324 2.28718 11.4886 2.25351 11.5849 2.27425C11.6938 2.2986 11.7976 2.3383 11.9039 2.37032C11.9697 2.38994 12.0456 2.39521 12.0396 2.49456C12.0333 2.57538 11.974 2.61455 11.9106 2.63852C11.7984 2.68022 11.505 2.51446 11.4734 2.38793ZM8.62111 7.47445C8.62405 7.38988 8.67003 7.33566 8.764 7.31281C8.84059 7.29461 9.10791 7.39755 9.11117 7.46185C9.11548 7.55612 9.11344 7.66141 8.98632 7.69082C8.89177 7.71149 8.65121 7.57811 8.62111 7.47445ZM5.9851 15.4963C5.86702 15.0903 5.90072 14.6949 6.09056 14.3089C6.1402 14.4073 6.23212 14.4898 6.16 14.6115C5.99986 14.8825 5.98038 15.1833 5.9851 15.4963ZM14.5871 32.4239C14.591 32.2995 14.5847 32.1546 14.7376 32.0997C14.8395 32.063 14.9203 32.1298 14.9362 32.2327C14.9582 32.3757 14.953 32.5214 14.7789 32.5751C14.6612 32.6136 14.6285 32.5176 14.5871 32.4239ZM9.77611 6.79024C9.72945 6.64214 9.84423 6.59276 9.93602 6.57049C10.0669 6.53775 10.162 6.61468 10.2034 6.74324C10.2363 6.84848 10.1915 6.94195 10.0913 6.95018C9.96662 6.96264 9.83263 6.94035 9.77611 6.79024ZM2.76379 23.5748C2.3898 23.291 2.11621 22.9128 1.85825 22.5234C1.83867 22.4937 1.83471 22.4529 1.88365 22.4444C1.93259 22.4359 1.99095 22.4366 2.00984 22.4897C2.17342 22.9091 2.49819 23.2177 2.76379 23.5748ZM19.3943 11.1538C19.3436 10.9905 19.3808 10.8339 19.4787 10.817C19.601 10.7958 19.6946 10.8499 19.7392 10.9729C19.7564 11.0196 19.5836 11.287 19.5227 11.294C19.4187 11.3055 19.4257 11.2013 19.3943 11.1538ZM21.0594 10.8008C21.0646 10.7854 21.0676 10.7706 21.074 10.7596C21.1593 10.6437 21.2257 10.5095 21.357 10.4347C21.3689 10.4269 21.4145 10.4496 21.4219 10.4685C21.4832 10.6104 21.4199 10.7391 21.3626 10.8638C21.3431 10.904 21.3235 10.9697 21.2613 10.9375C21.1887 10.9011 21.1086 10.8714 21.0594 10.8008ZM9.72908 7.30093C9.75261 7.2411 9.77564 7.11855 9.86017 7.08659C9.97178 7.04272 10.097 7.09296 10.1455 7.22194C10.1889 7.34065 10.1048 7.42605 10.0134 7.44122C9.91609 7.4603 9.78028 7.49204 9.72908 7.30093ZM11.5028 5.43379C11.4937 5.34778 11.4074 5.24289 11.5699 5.20634C11.6774 5.18217 11.8657 5.32025 11.8865 5.4497C11.8987 5.5302 11.8626 5.58644 11.776 5.59335C11.648 5.60205 11.5263 5.59973 11.5028 5.43379ZM9.5555 7.71287C9.44967 7.74356 9.36377 7.727 9.28853 7.66337C9.24315 7.62433 9.22802 7.56786 9.24345 7.51252C9.27993 7.37939 9.39938 7.47772 9.47609 7.43389C9.56031 7.3834 9.66677 7.38979 9.6921 7.5017C9.71394 7.60059 9.65873 7.68987 9.5555 7.71287ZM19.2041 35.6348C19.1566 35.6312 19.0382 35.6583 19.0053 35.5181C18.9788 35.4019 19.0354 35.3006 19.1462 35.2709C19.2526 35.2424 19.3626 35.2967 19.3928 35.4096C19.4174 35.5101 19.3874 35.6066 19.2041 35.6348ZM11.8692 3.12677C11.7742 3.15454 11.549 3.02636 11.5382 2.93383C11.5316 2.86577 11.5186 2.77382 11.6008 2.73317C11.6873 2.69136 11.9 2.85085 11.9261 2.9742C11.9386 3.03834 11.9298 3.10121 11.8692 3.12677ZM9.21957 6.18989C9.18065 5.98385 9.30149 5.90493 9.38986 5.80909C9.43166 5.76531 9.48874 5.78725 9.51458 5.83154C9.58365 5.95035 9.56148 6.05871 9.455 6.14775C9.43995 6.1611 9.42607 6.17878 9.41161 6.19429C9.38644 6.22199 9.3797 6.275 9.32102 6.25581C9.2651 6.23821 9.22147 6.20567 9.21957 6.18989ZM20.0558 36.0164C20.0661 35.9159 20.0361 35.7866 20.1593 35.7512C20.2478 35.7252 20.3607 35.7555 20.3893 35.8712C20.4225 35.9949 20.356 36.0942 20.2466 36.1375C20.1555 36.1712 20.1001 36.086 20.0558 36.0164ZM10.8559 5.72117C11.0415 5.72732 11.1535 5.67635 11.2266 5.54969C11.2982 5.42578 11.268 5.28722 11.2773 5.09619C11.3625 5.36198 11.4601 5.58721 11.2738 5.7605C11.1926 5.83112 11.0158 5.91808 10.8559 5.72117ZM21.7091 10.9758C21.7875 10.9641 21.8873 10.9024 21.9225 11.0164C21.9616 11.1362 21.8742 11.2272 21.7954 11.3065C21.7696 11.332 21.5225 11.1654 21.5255 11.1158C21.5357 11.006 21.6433 11.0167 21.7091 10.9758ZM19.6809 35.5117C19.767 35.5119 19.8398 35.5576 19.8487 35.6343C19.8659 35.7507 19.8193 35.8633 19.6965 35.8915C19.6199 35.9097 19.5126 35.8826 19.5119 35.7758C19.5116 35.6618 19.5694 35.5648 19.6809 35.5117ZM8.24038 19.3353C8.70365 19.4485 8.78925 19.5769 8.64773 19.9174C8.5966 19.6658 8.40773 19.5255 8.24038 19.3353ZM11.0762 4.42388C11.1963 4.39405 11.2833 4.38004 11.2917 4.48951C11.3005 4.59189 11.2898 4.73441 11.2009 4.76754C11.1142 4.80008 10.9956 4.68755 10.9616 4.61286C10.9153 4.5182 11.0056 4.43815 11.0762 4.42388ZM10.8173 3.36206C10.7951 3.43551 10.8732 3.57054 10.7265 3.60518C10.6255 3.6276 10.5663 3.54571 10.5407 3.45015C10.5098 3.33506 10.5777 3.24939 10.6638 3.21467C10.725 3.19128 10.8003 3.25491 10.8173 3.36206ZM8.47177 7.09086C8.41533 6.88021 8.4733 6.79252 8.63307 6.82419C8.77807 6.85284 8.66279 6.96984 8.71139 7.03829C8.75882 7.10239 8.75429 7.18972 8.64614 7.21172C8.53639 7.23647 8.50443 7.15193 8.47177 7.09086ZM11.4012 4.77671C11.5175 4.75021 11.5924 4.79531 11.6186 4.89303C11.6454 4.99293 11.6008 5.07002 11.4972 5.10013C11.3501 5.14187 11.3466 4.9985 11.3029 4.93106C11.2369 4.83237 11.36 4.82267 11.4012 4.77671ZM22.1526 11.8578C22.0888 11.7585 22.0402 11.6901 22.0003 11.6193C21.9727 11.5685 21.8841 11.5248 21.9349 11.4623C21.9841 11.4025 22.0671 11.4431 22.1307 11.4633C22.2579 11.5037 22.3164 11.5742 22.2231 11.7039C22.1932 11.7399 22.1809 11.7897 22.1526 11.8578ZM10.2935 4.76862C10.2113 4.58349 10.2315 4.42445 10.3579 4.28817C10.3991 4.24221 10.4363 4.31139 10.4504 4.33788C10.5495 4.52545 10.4529 4.65142 10.2935 4.76862ZM20.8674 36.1527C20.7716 36.1598 20.6788 36.1264 20.6535 36.0145C20.6322 35.9178 20.7158 35.8907 20.7934 35.8676C20.9241 35.8256 20.9512 35.9441 20.9872 36.0089C21.0249 36.0802 20.957 36.131 20.8674 36.1527ZM15.6905 35.6732C15.6769 35.6139 15.6478 35.5659 15.6972 35.5247C15.7166 35.5102 16.0433 35.7392 16.0582 35.7771C16.0815 35.8384 16.0413 35.8794 15.9962 35.8845C15.8253 35.907 15.7662 35.7646 15.6905 35.6732ZM15.0585 32.6631C15.1177 32.745 15.1836 32.8088 15.2166 32.8884C15.2519 32.9767 15.2303 33.0872 15.1293 33.1096C15.0325 33.1309 14.9882 33.0264 14.9787 32.9474C14.9675 32.862 14.9697 32.766 15.0585 32.6631ZM10.9416 3.52194C10.9682 3.44733 10.9168 3.30749 10.9811 3.30423C11.1249 3.29363 11.15 3.45681 11.2176 3.55275C11.2489 3.60021 11.2438 3.68537 11.1834 3.69457C11.0627 3.71296 11.0075 3.61136 10.9416 3.52194ZM15.4953 33.2769C15.5542 33.3402 15.6399 33.3824 15.661 33.4699C15.6787 33.5443 15.6699 33.6421 15.5852 33.6647C15.4788 33.6933 15.4513 33.5819 15.4262 33.5142C15.3981 33.4356 15.4104 33.3508 15.4953 33.2769ZM17.3682 33.9691C17.6467 34.0527 17.9254 34.2155 18.1826 33.8812C18.1525 34.2291 17.6153 34.231 17.3682 33.9691ZM18.5671 34.9513C18.6884 35.0305 18.8181 35.0888 18.7436 35.2624C18.7236 35.3096 18.6966 35.3565 18.6349 35.3171C18.4992 35.2278 18.4993 35.1067 18.5671 34.9513ZM14.3186 31.7348C14.3605 31.7608 14.4018 31.7846 14.4399 31.814C14.5156 31.8705 14.536 31.9465 14.508 32.0332C14.495 32.0716 14.4739 32.1145 14.4207 32.0984C14.3298 32.0716 14.293 31.9953 14.2737 31.9144C14.264 31.8611 14.2598 31.8017 14.3186 31.7348ZM11.3491 5.85903C11.4298 5.8304 11.4256 5.71049 11.5282 5.71095C11.5915 5.71261 11.6747 5.70194 11.6932 5.79707C11.7141 5.90088 11.6465 5.93528 11.5666 5.94972C11.4872 5.96632 11.4149 5.94845 11.3491 5.85903ZM27.3394 13.6684C27.2386 13.6745 27.1374 13.6527 27.0964 13.552C27.0685 13.4826 27.1399 13.4449 27.2023 13.4258C27.3032 13.3941 27.3617 13.439 27.3873 13.5345C27.404 13.5882 27.4213 13.6441 27.3394 13.6684ZM10.8374 4.39245C10.8479 4.46644 10.9003 4.56645 10.7752 4.586C10.7284 4.59388 10.6216 4.62949 10.6148 4.51726C10.6072 4.41923 10.625 4.31204 10.7263 4.27325C10.8087 4.24187 10.813 4.33614 10.8374 4.39245ZM19.155 12.5539C19.0326 12.4098 18.9533 12.2961 19.0275 12.1389C19.0454 12.1015 19.0836 12.0703 19.1274 12.0772C19.1832 12.0856 19.1687 12.136 19.1678 12.1758C19.1637 12.2909 19.1591 12.4039 19.155 12.5539ZM17.881 12.5159C17.8948 12.6542 17.9092 12.769 17.8303 12.874C17.6622 12.6374 17.6636 12.6254 17.881 12.5159ZM19.2263 11.8296C19.151 11.7311 19.1719 11.644 19.1624 11.5651C19.1583 11.515 19.192 11.4757 19.2502 11.4671C19.2861 11.4621 19.3204 11.4599 19.3449 11.4906C19.3789 11.5304 19.3489 11.5663 19.331 11.6037C19.3005 11.6724 19.2695 11.7389 19.2263 11.8296ZM16.1469 34.0845C16.0729 34.0601 15.9971 34.0292 15.9549 33.9498C15.9228 33.8908 15.9587 33.851 16.0104 33.8441C16.098 33.8323 16.1691 33.8807 16.2015 33.9581C16.2169 33.9982 16.2092 34.0562 16.1469 34.0845ZM7.55855 8.5645C7.55002 8.5761 7.54149 8.58769 7.53078 8.59987C7.42584 8.52092 7.31872 8.44256 7.21595 8.36303C7.17507 8.33209 7.13795 8.29781 7.19596 8.24502C7.24862 8.19833 7.27186 8.25029 7.29463 8.27445C7.38511 8.36891 7.46966 8.46729 7.55855 8.5645ZM9.12898 7.09398C9.11909 7.05706 9.09659 7.01654 9.10031 6.9783C9.10546 6.92804 9.09018 6.86231 9.1485 6.82806C9.18468 6.80673 9.20919 6.8374 9.23789 6.85764C9.29746 6.89754 9.30941 6.95951 9.30499 7.02121C9.30472 7.03758 9.28293 7.10393 9.24101 7.04301C9.11756 6.86894 9.17982 7.1013 9.12898 7.09398ZM9.0206 6.32467C8.93474 6.34302 8.91814 6.26368 8.89071 6.22214C8.85154 6.16281 8.9177 6.14043 8.95939 6.12228C9.03307 6.09323 9.06859 6.13026 9.10458 6.1951C9.16424 6.3048 9.01342 6.25444 9.0206 6.32467ZM23.7418 17.8584C24.0787 17.7169 24.1679 17.5114 24.0535 17.1627C23.9615 16.8801 23.7344 16.771 23.4279 16.8345C22.6736 16.9901 21.9096 17.0226 21.143 17.0371C20.3994 17.0502 19.6555 17.0191 18.915 16.9568C18.4557 16.9193 18.1583 17.1037 18.176 17.4737C18.1894 17.7843 18.2223 18.0897 18.2206 18.4044C18.219 18.7028 18.4539 18.8842 18.7615 18.9554C19.7108 19.1712 20.6742 19.1528 21.6341 19.0958C22.2503 19.0587 22.8643 18.9873 23.483 19.0031C23.7268 19.0099 23.984 18.8316 24.0567 18.6166C24.142 18.3703 24.0524 18.1662 23.8836 17.9879C23.842 17.9456 23.7978 17.9109 23.7418 17.8584ZM23.0901 17.9887C23.3961 17.8276 23.6089 17.9964 23.7909 18.2153C23.8766 18.318 23.9192 18.4509 23.8512 18.5878C23.7778 18.7309 23.6611 18.7994 23.4965 18.8016C23.1644 18.8044 22.83 18.7986 22.5006 18.8287C21.2759 18.9404 20.052 18.9332 18.8299 18.8021C18.5468 18.7709 18.4319 18.6457 18.3942 18.323C18.3694 18.1085 18.4365 18.0463 18.649 18.0662C18.9734 18.0956 19.2984 18.1272 19.6243 18.1447C20.7825 18.2021 21.9399 18.1783 23.0901 17.9887ZM18.3602 17.692C18.3013 17.4634 18.3905 17.2231 18.5644 17.1858C18.7094 17.1539 18.8661 17.1305 19.0135 17.1422C19.6536 17.1942 20.2923 17.2325 20.934 17.2212C21.7938 17.2072 22.6493 17.1689 23.4927 16.9894C23.7215 16.9398 23.8261 17.0002 23.9017 17.2476C23.9727 17.4776 23.8981 17.6163 23.7259 17.7206C23.5839 17.8076 23.4467 17.7559 23.3096 17.774C23.0124 17.8117 22.7118 17.8364 22.4145 17.8649C21.14 17.9899 19.8659 17.917 18.5901 17.8725C18.4385 17.8712 18.3841 17.816 18.3602 17.692ZM27.3322 23.1272C27.5982 23.2514 27.6476 23.2359 27.7529 22.9772C27.7828 22.9064 27.8227 22.8817 27.8863 22.867C27.9694 22.8471 28.0441 22.8131 28.1156 22.7241C27.9059 22.7058 27.7218 22.7831 27.5305 22.7901C27.4427 22.7927 27.3552 22.8394 27.2678 22.8349C27.1663 22.8295 27.1532 22.8586 27.1541 22.9491C27.1542 23.1493 27.1012 23.3334 26.9198 23.5077C26.9755 23.2902 27.0046 23.1032 26.9388 22.9184C26.9033 22.8208 26.9763 22.8152 27.0383 22.8033C27.1616 22.7772 27.2863 22.7647 27.4085 22.7343C27.7478 22.6457 27.9689 22.4631 28.1433 22.1324C28.1019 22.0993 28.0657 22.1207 28.0383 22.1489C27.6856 22.5437 27.215 22.5767 26.7324 22.5826C26.4816 22.5847 26.2438 22.6181 26.0482 22.7916C25.7903 23.019 25.7019 23.3057 25.7495 23.6397C25.7799 23.8573 25.9651 23.7844 26.0878 23.8167C26.1853 23.8418 26.1609 23.7506 26.1631 23.6895C26.503 24.0197 27.24 23.7733 27.3322 23.1272ZM26.3361 23.3708C26.6386 23.327 26.7071 23.183 26.6034 22.9524C26.587 22.9172 26.5891 22.8817 26.6353 22.8717C26.6511 22.8698 26.6812 22.878 26.6863 22.8883C26.7598 23.0408 26.7586 23.2017 26.676 23.3449C26.6072 23.4704 26.493 23.4265 26.3361 23.3708ZM14.839 22.2712C14.5807 22.6453 14.585 22.835 14.8472 23.1534C14.8745 23.1857 14.9121 23.2129 14.9241 23.2492C14.9846 23.4402 15.1035 23.4409 15.2482 23.3555C15.3449 23.2994 15.401 23.2657 15.4425 23.4292C15.5382 23.8039 15.9378 24.0529 16.3271 24.0115C16.431 23.9999 16.535 23.9883 16.6411 23.9762C16.6955 24.0663 16.5518 24.1118 16.5926 24.2033C16.9287 24.0853 16.8958 23.8148 16.8647 23.5509C16.8439 23.3865 16.8333 23.2078 16.7258 23.076C16.3638 22.6284 16.0916 22.429 15.5249 22.9113C15.4776 22.9519 15.4292 22.9975 15.3735 23.024C15.268 23.0733 15.2006 23.2473 15.0377 23.1257C14.8637 22.9977 14.7441 22.7598 14.7789 22.5945C14.7991 22.496 14.8784 22.4096 14.839 22.2712ZM16.3706 23.6181C16.2904 23.7443 16.1876 23.7602 16.0712 23.7169C15.9653 23.6778 15.8731 23.6117 15.7992 23.5268C15.7219 23.4381 15.6462 23.3467 15.6179 23.2239C15.5986 23.143 15.6655 23.132 15.7037 23.1008C15.723 23.0863 15.7558 23.0869 15.7797 23.0805C15.7823 23.1077 15.7955 23.1484 15.7837 23.1562C15.6158 23.2943 15.7569 23.3775 15.8423 23.4617C15.9875 23.6043 16.1644 23.6477 16.3706 23.6181ZM16.5366 21.9443C16.1848 21.6825 15.8722 21.7057 15.5638 22.0141C15.4146 22.1611 15.271 22.3114 15.1219 22.4584C15.0939 22.4845 15.0681 22.5356 15.0185 22.507C14.9629 22.4731 15.0074 22.4309 15.0277 22.4022C15.1787 22.1755 15.3094 21.9333 15.4952 21.7322C15.6307 21.5865 15.7949 21.4867 15.9995 21.4598C16.7514 21.3561 17.4889 22.1802 17.4334 22.9981C17.4275 23.0975 17.3814 23.1773 17.2707 23.1814C17.1644 23.1842 17.1038 23.1144 17.0841 23.0149C17.0661 22.9127 17.0567 22.8081 17.0473 22.7385C16.9467 22.3977 16.7945 22.1336 16.5366 21.9443ZM27.7493 22.1472C27.407 21.7734 26.9956 21.7929 26.5741 21.9571C26.1883 22.107 25.8994 22.3752 25.7463 22.7677C25.7107 22.8611 25.6651 22.9338 25.5543 22.9286C25.4456 22.9228 25.4305 22.8314 25.4111 22.7505C25.3883 22.6565 25.4141 22.5705 25.447 22.4848C25.7261 21.7979 26.7327 21.3676 27.4272 21.64C27.6797 21.7399 27.788 21.953 27.882 22.1908C27.8066 22.2134 27.7732 22.1758 27.7493 22.1472ZM20.5638 20.7302C20.3448 20.5817 20.2889 20.3733 20.3137 20.1269C20.3184 20.0837 20.3187 20.0325 20.3644 20.0295C20.4074 20.025 20.4354 20.0687 20.4427 20.1133C20.4805 20.3499 20.6631 20.4406 20.8542 20.5197C21.0432 20.5995 21.2428 20.6321 21.4474 20.6401C21.6471 20.6471 21.7875 20.5629 21.8658 20.386C21.9194 20.2646 21.9493 20.1332 21.9952 20.0092C22.0188 19.9493 22.0549 19.8931 22.1314 19.9005C22.2057 19.9086 22.2338 19.9615 22.2556 20.0255C22.3741 20.3895 22.0926 20.9025 21.6702 21.011C21.3016 21.0516 20.9157 20.9664 20.5638 20.7302ZM22.0212 22.7813C22.1633 22.9644 22.1417 23.1703 22.0917 23.3746C22.0732 23.4447 22.0251 23.4995 21.9438 23.5003C21.8669 23.5 21.8228 23.4396 21.8169 23.383C21.783 23.1175 21.7529 22.8486 21.8633 22.5746C21.9235 22.6515 21.971 22.7156 22.0212 22.7813ZM21.6242 21.8124C21.7973 21.7636 21.8842 21.61 21.8197 21.4388C21.7593 21.2827 21.6138 21.2612 21.4708 21.2832C21.3147 21.3088 21.2322 21.4612 21.2713 21.616C21.3161 21.7832 21.4554 21.8599 21.6242 21.8124ZM21.4514 21.5933C21.4289 21.5179 21.4471 21.4641 21.5192 21.4378C21.5826 21.4139 21.6243 21.4306 21.6451 21.4995C21.6665 21.5706 21.657 21.622 21.5788 21.643C21.5202 21.6587 21.4647 21.6689 21.4514 21.5933ZM21.9655 23.7203C22.0826 23.6796 22.1318 23.7851 22.1586 23.885C22.1929 24.0131 22.1747 24.1274 22.0319 24.168C21.9261 24.1987 21.8645 24.1337 21.8303 24.0149C21.8274 23.9086 21.8294 23.7684 21.9655 23.7203ZM17.9802 35.1411C18.0252 35.1267 18.0884 35.0586 18.1119 35.1547C18.1271 35.2204 18.0645 35.2558 18.0073 35.2595C17.7279 35.2855 17.4481 35.3442 17.1667 35.2497C17.4337 35.2037 17.7134 35.2312 17.9802 35.1411ZM15.8196 28.9538C16.1005 29.1858 16.3815 29.4178 16.663 29.6519C16.3158 29.5028 16.0595 29.241 15.7817 29.0036C15.7962 28.988 15.8079 28.9709 15.8196 28.9538ZM21.3392 32.6839C21.597 32.5776 21.8683 32.5305 22.1379 32.4769C22.1426 32.4943 22.1472 32.5116 22.1519 32.529C21.8869 32.6 21.6198 32.6716 21.3549 32.7426C21.3496 32.723 21.3444 32.7035 21.3392 32.6839ZM21.0398 32.3917C21.1986 32.2375 21.5408 32.1597 21.6787 32.2485C21.4668 32.2657 21.2722 32.3644 21.0398 32.3917ZM22.0481 7.91501C21.9456 7.91455 21.8561 7.9455 21.7611 7.97328C21.1876 8.14326 20.6156 8.31049 20.0843 8.59484C19.8151 8.73679 19.5132 8.81768 19.2254 8.92504C18.64 9.13776 18.0482 9.3266 17.4414 9.46824C17.3866 9.48061 17.2945 9.51924 17.2775 9.447C17.254 9.35086 17.347 9.33294 17.4263 9.31634C18.3282 9.11193 19.1874 8.77462 20.0508 8.45252C20.686 8.21714 21.312 7.95629 21.969 7.78491C22.0798 7.75523 22.1965 7.72164 22.3123 7.79767C22.2401 7.88451 22.1457 7.91446 22.0481 7.91501ZM15.5149 9.74006C14.5573 9.67545 13.628 9.48221 12.7352 9.12094C12.4222 8.99532 12.1711 8.78794 11.9583 8.48885C13.1848 9.42641 14.6124 9.51637 16.0623 9.63759C15.8735 9.75802 15.6901 9.75129 15.5149 9.74006ZM29.0439 12.9673C28.8978 13.3602 28.6772 13.701 28.3479 13.9661C28.3022 14.004 28.2551 14.0282 28.1962 14.0254C28.1607 14.0232 28.1255 14.0047 28.1259 13.9627C28.1264 13.93 28.1278 13.8831 28.1714 13.8807C28.3664 13.8704 28.4394 13.6995 28.5481 13.5843C28.7459 13.3753 28.8746 13.1174 29.0082 12.8605C29.0487 12.8985 29.0574 12.9311 29.0439 12.9673ZM6.98004 13.207C7.05485 12.7913 7.35374 12.5343 7.65163 12.2823C7.69518 12.245 7.74877 12.2539 7.77158 12.313C7.79047 12.3661 7.79055 12.4359 7.71423 12.4377C7.62865 12.4397 7.59425 12.5025 7.5426 12.5442C7.29997 12.7419 7.14069 12.9987 7.01348 13.3145C6.99501 13.2542 6.97659 13.2289 6.98004 13.207ZM28.4981 13.1717C28.3849 13.4092 28.2588 13.6338 28.0438 13.7869C28.1809 13.5686 28.298 13.3371 28.4981 13.1717ZM5.27784 24.74C5.29452 24.7588 5.31554 24.7764 5.33063 24.798C5.59992 25.2123 5.82651 25.6497 6.06931 26.078C6.4465 26.7474 6.82645 27.4183 7.44325 27.9048C8.53479 28.7644 9.77537 29.2769 11.1445 29.4873C11.9045 29.6049 12.6625 29.7323 13.3761 30.0415C13.8733 30.2551 14.3006 30.5642 14.6596 30.9661C14.7258 31.0391 14.786 31.1161 14.8035 31.2162C14.8108 31.2608 14.8109 31.3049 14.7616 31.3205C14.7187 31.3343 14.6764 31.3154 14.6523 31.2776C14.3217 30.782 13.8342 30.4913 13.3083 30.2575C12.616 29.9496 11.8748 29.8502 11.1309 29.7493C10.317 29.6392 9.51494 29.4864 8.77502 29.1051C7.92512 28.6694 7.13349 28.1647 6.59942 27.3442C6.19578 26.7238 5.86408 26.0679 5.5399 25.4053C5.43378 25.1916 5.33142 24.9747 5.22689 24.7583C5.24426 24.7536 5.26105 24.7468 5.27784 24.74ZM29.8055 19.5364C30.1545 19.5011 30.4029 19.7418 30.6924 19.8667C30.371 19.8225 30.107 19.6279 29.8055 19.5364ZM13.7604 4.4169C13.7799 4.41166 13.8011 4.40367 13.8206 4.39843C13.8846 4.63731 13.9486 4.87619 14.0126 5.11507C13.8667 4.90048 13.8287 4.65461 13.7604 4.4169ZM8.71539 8.44306C8.53991 8.48309 8.36767 8.32675 8.33438 8.09826C8.41741 8.13885 8.44286 8.22514 8.50216 8.2814C8.56697 8.34085 8.64205 8.39521 8.71062 8.45132L8.71539 8.44306ZM20.8362 12.8343C20.8381 12.7547 20.8409 12.6957 20.9251 12.6709C21.0042 12.645 21.0632 12.6827 21.1105 12.7376C21.2712 12.9203 21.1743 13.0277 21.0217 13.1617C20.7895 13.3636 20.5369 13.3591 20.4042 13.0897C20.2387 12.75 20.1709 12.3841 20.254 12.0081C20.3528 11.5603 20.7183 11.4042 21.118 11.6276C21.5293 11.8596 21.7859 12.3657 21.7294 12.8324C21.7147 12.9597 21.6851 13.084 21.5968 13.1798C21.5464 13.2352 21.4819 13.2897 21.3948 13.2339C21.311 13.1819 21.3547 13.119 21.3759 13.0505C21.5063 12.6338 21.3144 12.1522 20.9429 11.9469C20.754 11.8415 20.6407 11.8789 20.57 12.084C20.4753 12.3561 20.5013 12.6355 20.5659 12.9114C20.6052 13.0754 20.6906 13.1945 20.922 13.1372C20.7837 13.0555 20.8353 12.944 20.8362 12.8343ZM21.9151 13.4297C21.9537 13.3914 22.0009 13.3765 22.0405 13.4287C22.0774 13.4793 22.047 13.5224 22.0121 13.5573C21.7713 13.7964 21.5005 13.9411 21.1365 13.7989C21.4679 13.8195 21.6988 13.6389 21.9151 13.4297ZM20.8212 13.8904C20.8528 13.8866 20.8924 13.9039 20.9001 13.9414C20.9079 13.9882 20.8655 13.9949 20.8329 14.0036C20.7277 14.0365 20.6223 14.0601 20.46 14.0104C20.5982 13.9269 20.7074 13.8999 20.8212 13.8904ZM16.2238 3.93372C16.3193 4.00355 16.4122 4.08107 16.5449 4.05484C16.6747 4.02702 16.7311 3.94209 16.7323 3.81609C16.7335 3.725 16.7748 3.68831 16.8633 3.66228C17.1612 3.57546 17.2036 3.40351 16.9905 3.18132C16.9671 3.15499 16.9368 3.1375 16.9097 3.11451C17.1525 2.83065 17.1375 2.71366 16.8271 2.54546C16.8568 2.50024 16.8921 2.45819 16.9164 2.40979C17.0174 2.22213 16.938 2.07349 16.7283 2.0552C16.6688 2.05021 16.6055 2.08345 16.5886 1.98557C16.5674 1.86322 16.4907 1.77671 16.3721 1.75961C16.2415 1.74109 16.1755 1.84254 16.1156 1.94008C16.0981 1.97037 16.0778 1.99907 16.0576 2.02777C15.7745 1.73586 15.6285 1.77267 15.5047 2.16196C15.4923 2.20252 15.4806 2.21962 15.4407 2.21866C15.2597 2.22061 15.229 2.34056 15.2266 2.48785C15.2246 2.5675 15.222 2.63572 15.143 2.70576C14.9969 2.83801 15.0203 3.06449 15.1701 3.25012C15.2119 3.30177 15.2565 3.32937 15.2232 3.4221C15.1389 3.66348 15.3174 3.86934 15.571 3.83399C15.6586 3.82216 15.6868 3.8495 15.7294 3.91259C15.911 4.17348 16.0305 4.17638 16.2238 3.93372ZM15.8979 3.07372C15.8338 2.99081 15.8455 2.90391 15.8959 2.82289C15.9469 2.74405 16.0166 2.7696 16.0752 2.81442C16.142 2.86401 16.1764 2.93161 16.1155 3.00843C16.0679 3.06541 16.0401 3.06587 15.9752 2.99716C15.8886 2.90863 15.9164 3.03851 15.893 3.07271C15.9976 3.19366 16.1056 3.16239 16.1944 3.05946C16.2939 2.94435 16.2413 2.83508 16.1504 2.74771C16.0501 2.65124 15.9225 2.65284 15.8353 2.75301C15.7122 2.89306 15.7179 3.07075 15.7969 3.22648C15.8708 3.37194 16.0104 3.40668 16.1724 3.37723C16.3078 3.35259 16.4169 3.29077 16.5294 3.13726C16.412 3.51554 16.0531 3.60938 15.7577 3.39293C15.581 3.26338 15.4845 2.93779 15.5858 2.70813C15.6452 2.57352 15.6818 2.41475 15.9449 2.52812C16.1768 2.62893 16.3671 2.69662 16.408 2.95334C16.4293 3.08496 16.3874 3.18928 16.2718 3.25285C16.1599 3.31309 16.0365 3.30426 15.9355 3.23124C15.9072 3.2039 15.7978 3.15175 15.8979 3.07372ZM15.6307 2.32835C15.6014 2.1756 15.552 2.02591 15.7246 1.97502C15.8434 1.94084 15.9353 2.02328 15.976 2.14039C16.0185 2.26402 15.963 2.36966 15.8434 2.3924C15.7808 2.40217 15.6206 2.50794 15.6307 2.32835ZM16.873 3.55959C16.7462 3.57263 16.6103 3.56946 16.5928 3.43451C16.5792 3.34039 16.5971 3.17267 16.7054 3.15994C16.836 3.14356 16.953 3.25884 16.9994 3.3884C17.0376 3.48756 16.9329 3.52259 16.873 3.55959ZM16.1331 2.24028C16.121 2.13414 16.184 2.05673 16.2345 1.97571C16.2722 1.91672 16.3157 1.84455 16.3989 1.89441C16.4711 1.93792 16.5185 2.00202 16.4974 2.10544C16.4776 2.19685 16.4003 2.23851 16.3535 2.30692C16.3317 2.33837 16.3038 2.39938 16.2399 2.36064C16.1919 2.32927 16.1397 2.30833 16.1331 2.24028ZM16.3314 3.58833C16.4641 3.56211 16.5731 3.59572 16.6224 3.73614C16.6528 3.82343 16.6372 3.9044 16.5424 3.94145C16.4373 3.98357 16.2706 3.86531 16.2346 3.73067C16.2058 3.64062 16.2438 3.60017 16.3314 3.58833ZM16.6705 2.18706C16.7384 2.1712 16.8121 2.14214 16.8394 2.24421C16.8674 2.34845 16.6789 2.55722 16.5308 2.60388C16.4321 2.63499 16.4355 2.54332 16.3994 2.50411C16.3666 2.46867 16.5892 2.21352 16.6705 2.18706ZM15.1709 3.03578C15.1556 2.93514 15.1238 2.79934 15.2405 2.76575C15.3225 2.74146 15.4355 2.81591 15.4464 2.94334C15.4516 2.99779 15.4482 3.05456 15.4535 3.10901C15.4592 3.15636 15.4856 3.20282 15.4163 3.23071C15.3653 3.24901 15.3212 3.24921 15.2807 3.21117C15.2297 3.15968 15.1814 3.10977 15.1709 3.03578ZM15.3146 3.57217C15.2888 3.43245 15.3865 3.37136 15.4826 3.34793C15.594 3.32043 15.6571 3.44316 15.6807 3.51366C15.703 3.57982 15.6725 3.70904 15.5698 3.73421C15.4427 3.76362 15.3644 3.67986 15.3146 3.57217ZM16.6089 2.86925C16.5687 2.77994 16.5558 2.69726 16.6879 2.66887C16.8112 2.6428 16.9296 2.67625 16.9686 2.78685C17.0178 2.92727 16.8735 2.9706 16.7777 3.01257C16.6526 3.06702 16.628 2.96655 16.6089 2.86925ZM15.8161 3.81951C15.7891 3.73598 15.7681 3.6229 15.8534 3.60237C15.9359 3.58026 16.0662 3.58025 16.1003 3.72474C16.1266 3.83174 16.1197 3.93602 16.0162 3.97539C15.8975 4.01883 15.8472 3.91824 15.8161 3.81951ZM15.4542 2.69453C15.3995 2.65564 15.3247 2.64544 15.3319 2.5597C15.3398 2.47613 15.2877 2.35975 15.4039 2.33326C15.4827 2.31448 15.543 2.40072 15.5504 2.48022C15.5605 2.56131 15.49 2.61976 15.4542 2.69453ZM15.3216 4.31047C15.3426 4.45845 15.4877 4.5918 15.3557 4.75054C15.382 4.59685 15.2341 4.46191 15.3216 4.31047ZM25.6472 32.4397C25.8923 32.3903 26.1416 32.4259 26.3877 32.467C26.4364 32.4749 26.4826 32.4998 26.4788 32.5637C26.4752 32.6112 26.4345 32.6244 26.4038 32.614C26.0591 32.4829 25.7022 32.532 25.2928 32.5416C25.4247 32.4085 25.5455 32.4599 25.6472 32.4397ZM27.5318 30.8128C26.9523 30.5002 26.4781 29.8336 26.6093 29.4633C26.7207 30.0875 27.1276 30.4509 27.5318 30.8128ZM25.4231 36.7894C25.4501 36.8031 25.4677 36.8426 25.4786 36.8746C25.49 36.9088 25.4814 36.946 25.4441 36.963C25.4132 36.9782 25.3926 36.9535 25.377 36.9298C25.304 36.805 25.1623 36.7801 25.0568 36.699C24.9573 36.6233 24.8216 36.5945 24.771 36.4404C24.989 36.5589 25.2079 36.6725 25.4231 36.7894ZM17.8539 33.2105C17.7384 33.2484 17.7864 33.1494 17.7751 33.0989C17.7653 33.062 17.7331 33.0287 17.7161 32.9914C17.6674 32.888 17.6668 32.8161 17.8145 32.8114C17.8608 32.8106 17.9433 32.849 17.9568 32.743C17.968 32.6632 18.0306 32.6278 18.1129 32.6569C18.1694 32.6767 18.2105 32.7169 18.2001 32.7825C18.1857 32.8679 18.1291 32.8737 18.0496 32.8811C17.9723 32.8878 17.8798 32.9335 17.8601 33.025C17.9362 33.1093 17.9412 33.1801 17.8539 33.2105ZM16.8936 32.2063C16.5074 32.4331 16.3611 32.747 16.3456 33.184C16.2065 32.7605 16.4901 32.2469 16.8936 32.2063ZM17.8159 32.5387C17.7581 32.4448 17.6842 32.3948 17.5731 32.371C17.5063 32.3563 17.5483 32.2869 17.5876 32.26C17.6248 32.2338 17.9472 32.4034 17.9573 32.4496C17.9657 32.4985 17.9356 32.5252 17.8864 32.55C17.8667 32.546 17.8243 32.5527 17.8159 32.5387ZM16.7778 32.5213C16.6523 32.7131 16.5265 32.8865 16.5052 33.111C16.4211 32.8752 16.5467 32.5971 16.7778 32.5213ZM17.325 33.5733C17.3566 33.6044 17.4309 33.6124 17.3879 33.6775C17.3527 33.7288 17.2974 33.7134 17.2613 33.6742C17.1779 33.5802 17.0564 33.5522 16.9368 33.4795C17.1191 33.3608 17.2196 33.4666 17.325 33.5733ZM17.5816 33.5581C17.5428 33.5173 17.5372 33.4443 17.5215 33.3857C17.5186 33.3748 17.5431 33.345 17.5546 33.3442C17.6266 33.3436 17.6782 33.3972 17.6949 33.4509C17.7169 33.5242 17.7961 33.5681 17.7848 33.6736C17.7083 33.6312 17.6299 33.608 17.5816 33.5581Z" fill="#5F7F6C"/>
</svg>
